<?xml version="1.0" encoding="utf-8"?>
<!-- Generator: Adobe Illustrator 19.2.1, SVG Export Plug-In . SVG Version: 6.00 Build 0)  -->
<svg version="1.1" id="Layer_2" xmlns="http://www.w3.org/2000/svg" xmlns:xlink="http://www.w3.org/1999/xlink" x="0px" y="0px"
	 viewBox="0 0 53.5 59" style="enable-background:new 0 0 53.5 59;" xml:space="preserve">
<style type="text/css">
	.st0{fill:none;stroke:#5D5D82;stroke-width:2;stroke-linecap:round;stroke-linejoin:round;stroke-miterlimit:10;}
	.st1{fill:#FFAC3E;stroke:#5D5D82;stroke-width:2;stroke-linecap:round;stroke-linejoin:round;stroke-miterlimit:10;}
	.st2{fill:#5D5D82;}
	.st3{font-family:'PlanetNS';}
	.st4{font-size:7.7235px;}
</style>
<path class="st0" d="M11.3,27.7c0-3.3,2.9-5.9,6.3-5.9h21.4c3.5,0,6.3,2.6,6.3,5.9v15.2c0,3.3-2.9,5.9-6.3,5.9H17.7
	c-3.5,0-6.3-2.6-6.3-5.9v-7.7"/>
<path class="st1" d="M48,40h-6.3c-2.2,0-4.1-1.9-4.1-4.1l0,0c0-2.2,1.9-4.1,4.1-4.1H48c0.4,0,0.6,0.3,0.6,0.6v7
	C48.6,39.7,48.4,40,48,40z"/>
<circle class="st2" cx="41.3" cy="35.8" r="1.2"/>
<line class="st0" x1="45.3" y1="26.8" x2="17.4" y2="26.8"/>
<line class="st0" x1="24.9" y1="8.9" x2="24.9" y2="14.1"/>
<line class="st0" x1="32.9" y1="8.7" x2="32.9" y2="13.8"/>
<line class="st0" x1="29" y1="7.3" x2="29" y2="13.2"/>
<path class="st1" d="M34.4,26.8c1-1.2,1.6-2.7,1.6-4.4c0-3.9-3.1-7-7-7s-7,3.1-7,7c0,1.7,0.6,3.3,1.6,4.5L34.4,26.8L34.4,26.8z"/>
<text transform="matrix(1 0 0 1 25.9097 25.6982)" class="st2 st3 st4">$</text>
<line class="st0" x1="11.3" y1="32" x2="11.3" y2="31.3"/>
</svg>
