<?xml version="1.0" encoding="utf-8"?>
<!-- Generator: Adobe Illustrator 19.2.1, SVG Export Plug-In . SVG Version: 6.00 Build 0)  -->
<svg version="1.1" id="Layer_3" xmlns="http://www.w3.org/2000/svg" xmlns:xlink="http://www.w3.org/1999/xlink" x="0px" y="0px"
	 viewBox="0 0 60.5 59" style="enable-background:new 0 0 60.5 59;" xml:space="preserve">
<style type="text/css">
	.st0{fill:none;stroke:#5D5D82;stroke-width:2;stroke-linecap:round;stroke-linejoin:round;stroke-miterlimit:10;}
	.st1{fill:#FFAC3E;}
	.st2{fill:#5D5D82;}
	.st3{fill:#FFCCB6;stroke:#5D5D82;stroke-linecap:round;stroke-linejoin:round;stroke-miterlimit:10;}
</style>
<path class="st0" d="M14.6,28.2H7.1c-2,0-3.5-1.6-3.5-3.5v-7.3c0-2,1.6-3.5,3.5-3.5h30.8"/>
<path class="st0" d="M53.4,13.8c2,0,3.5,1.6,3.5,3.5v7.3c0,2-1.6,3.5-3.5,3.5h-7.5"/>
<line class="st0" x1="9.7" y1="21" x2="50.8" y2="21"/>
<path class="st0" d="M42.9,48.6H17.6c-1.7,0-3-1.3-3-3V21h31.4v24.7C45.9,47.3,44.6,48.6,42.9,48.6z"/>
<path class="st1" d="M22.7,22.1c-0.9,1.4-1.4,3-1.4,4.8c0,4.9,4,8.9,8.9,8.9c4.9,0,8.9-4,8.9-8.9c0-1.8-0.5-3.4-1.4-4.8H22.7z"/>
<g>
	<path class="st2" d="M26.4,33.3c-0.6,0-0.9-0.3-0.9-0.9c0-0.6,0.3-1,0.8-0.9h4.9c0.6,0,1-0.1,1.3-0.2c0.2-0.1,0.4-0.2,0.5-0.3
		c0.1-0.1,0.1-0.3,0.1-0.6c0-0.2,0-0.4-0.1-0.5c-0.1-0.3-0.5-0.5-1-0.5l-3.5,0c-0.7,0-1.4-0.2-2-0.7c-0.7-0.5-1-1.2-1-2.2
		c0-0.6,0.2-1.2,0.5-1.6c0.6-0.9,1.8-1.3,3.4-1.3v-1h1.8v1l2.6,0h0.4c0.6,0,0.9,0.3,0.9,0.9s-0.3,1-0.8,0.9h-4.9
		c-0.6,0-1,0.1-1.3,0.2c-0.2,0.1-0.4,0.2-0.5,0.3c-0.1,0.1-0.1,0.3-0.1,0.6c0,0.2,0,0.4,0.1,0.5c0.1,0.3,0.5,0.5,1,0.5l3.5,0
		c0.7,0,1.4,0.2,2,0.7c0.7,0.5,1,1.2,1,2.2c0,0.6-0.2,1.2-0.5,1.6c-0.6,0.9-1.8,1.3-3.4,1.3l0,1h-1.8v-1l-2.6,0H26.4z"/>
</g>
<path class="st3" d="M39.2,45.8c1.3-2.8,3.1-3.6,3.9-3.7"/>
<path class="st3" d="M21.4,45.8c-1.3-2.8-3.1-3.6-3.9-3.7"/>
<line class="st0" x1="41.1" y1="13.8" x2="43.1" y2="13.8"/>
</svg>
