<?xml version="1.0" encoding="utf-8"?>
<!-- Generator: Adobe Illustrator 19.2.1, SVG Export Plug-In . SVG Version: 6.00 Build 0)  -->
<svg version="1.1" xmlns="http://www.w3.org/2000/svg" xmlns:xlink="http://www.w3.org/1999/xlink" x="0px" y="0px"
	 viewBox="0 0 60.5 59" style="enable-background:new 0 0 60.5 59;" xml:space="preserve">
<style type="text/css">
	.st0{display:none;}
	.st1{display:inline;fill:none;stroke:#5D5D82;stroke-width:2;stroke-linecap:round;stroke-linejoin:round;stroke-miterlimit:10;}
	.st2{display:inline;fill:#FFAC3E;}
	.st3{display:inline;}
	.st4{fill:#5D5D82;}
	.st5{display:inline;fill:#FFCCB6;stroke:#5D5D82;stroke-linecap:round;stroke-linejoin:round;stroke-miterlimit:10;}
	
		.st6{display:inline;fill:#FFCCB6;stroke:#5D5D82;stroke-width:1.5;stroke-linecap:round;stroke-linejoin:round;stroke-miterlimit:10;}
	.st7{fill:none;stroke:#5D5D82;stroke-width:2;stroke-linecap:round;stroke-linejoin:round;stroke-miterlimit:10;}
	.st8{fill:#FFAC3E;}
	.st9{fill:#FFCCB6;stroke:#5D5D82;stroke-linecap:round;stroke-linejoin:round;stroke-miterlimit:10;}
</style>
<g id="Layer_2" class="st0">
	<path class="st1" d="M15.5,23.3v-1.9c0-1.7,1.3-3,3-3h34.9c1.7,0,3,1.3,3,3v16.2c0,1.7-1.3,3-3,3H18.5c-1.7,0-3-1.3-3-3v-1.3"/>
	<circle class="st2" cx="35.9" cy="29.2" r="7.9"/>
	<g class="st3">
		<path class="st4" d="M33.2,32.6c-0.4,0-0.6-0.2-0.6-0.7c0-0.5,0.2-0.7,0.6-0.7h3.5c0.4,0,0.7-0.1,0.9-0.1c0.2-0.1,0.3-0.1,0.3-0.2
			c0.1-0.1,0.1-0.2,0.1-0.4c0-0.1,0-0.3-0.1-0.4c-0.1-0.2-0.3-0.3-0.7-0.3l-2.5,0c-0.5,0-1-0.2-1.4-0.5c-0.5-0.3-0.7-0.9-0.7-1.5
			c0-0.4,0.1-0.8,0.3-1.1c0.4-0.6,1.2-0.9,2.4-0.9V25h1.3v0.7l1.8,0h0.3c0.4,0,0.6,0.2,0.6,0.7s-0.2,0.7-0.6,0.7h-3.5
			c-0.4,0-0.7,0.1-0.9,0.1c-0.2,0.1-0.3,0.1-0.3,0.2c-0.1,0.1-0.1,0.2-0.1,0.4c0,0.1,0,0.3,0.1,0.4c0.1,0.2,0.3,0.3,0.7,0.3l2.5,0
			c0.5,0,1,0.2,1.4,0.5c0.5,0.3,0.7,0.9,0.7,1.5c0,0.4-0.1,0.8-0.3,1.1c-0.4,0.6-1.2,0.9-2.4,0.9l0,0.7h-1.3v-0.7l-1.8,0H33.2z"/>
	</g>
	<path class="st5" d="M53.9,23.9c-2.4-1.1-3.2-2.7-3.2-3.4"/>
	<path class="st5" d="M53.9,34.6c-2.4,1.1-3.2,2.7-3.2,3.4"/>
	<path class="st5" d="M19.4,23.9c2.4-1.1,3.2-2.7,3.2-3.4"/>
	<path class="st5" d="M19.4,34.6c2.4,1.1,3.2,2.7,3.2,3.4"/>
	<line class="st6" x1="7.8" y1="26.5" x2="20.5" y2="26.5"/>
	<line class="st6" x1="5.4" y1="30.1" x2="18.7" y2="30.1"/>
	<line class="st6" x1="9.7" y1="33.5" x2="17.2" y2="33.5"/>
	<line class="st6" x1="6.3" y1="33.5" x2="3.1" y2="33.5"/>
</g>
<g id="Layer_3">
	<g>
		<path class="st7" d="M10.7,31.8v-8.1c0-1.7,1.3-3,3-3h34.9c1.7,0,3,1.3,3,3v16.2c0,1.7-1.3,3-3,3H13.7c-1.7,0-3-1.3-3-3v-2.4"/>
		<circle class="st8" cx="31.2" cy="31.5" r="7.9"/>
		<g>
			<path class="st4" d="M28.1,35.3c-0.5,0-0.7-0.2-0.7-0.7c0-0.5,0.2-0.8,0.6-0.7H32c0.5,0,0.8-0.1,1-0.1c0.2-0.1,0.3-0.1,0.4-0.2
				c0.1-0.1,0.1-0.2,0.1-0.4c0-0.2,0-0.3-0.1-0.4c-0.1-0.2-0.4-0.4-0.8-0.4l-2.8,0c-0.5,0-1.1-0.2-1.6-0.6c-0.5-0.4-0.8-0.9-0.8-1.7
				c0-0.5,0.1-0.9,0.4-1.3c0.5-0.7,1.4-1,2.7-1v-0.8h1.4v0.8l2.1,0h0.3c0.5,0,0.7,0.2,0.7,0.7s-0.2,0.8-0.6,0.7h-3.9
				c-0.5,0-0.8,0.1-1,0.1c-0.2,0.1-0.3,0.1-0.4,0.2c-0.1,0.1-0.1,0.2-0.1,0.4c0,0.2,0,0.3,0.1,0.4c0.1,0.2,0.4,0.4,0.8,0.4l2.8,0
				c0.5,0,1.1,0.2,1.6,0.6c0.5,0.4,0.8,0.9,0.8,1.7c0,0.5-0.1,0.9-0.4,1.3c-0.5,0.7-1.4,1-2.7,1l0,0.8h-1.4v-0.8l-2,0H28.1z"/>
		</g>
		<path class="st9" d="M49.2,26.2c-2.4-1.1-3.2-2.7-3.2-3.4"/>
		<path class="st9" d="M49.2,36.9C46.8,38,46,39.6,46,40.4"/>
		<path class="st9" d="M14.6,26.2c2.4-1.1,3.2-2.7,3.2-3.4"/>
		<path class="st9" d="M14.6,36.9c2.4,1.1,3.2,2.7,3.2,3.4"/>
	</g>
	<g>
		<path class="st7" d="M15.1,20.8l25.7-9.6c1.4-0.5,2.9,0.2,3.5,1.6l3,8"/>
		<line class="st7" x1="45.1" y1="16.3" x2="33.1" y2="20.8"/>
	</g>
</g>
</svg>
