<?xml version="1.0" encoding="utf-8"?>
<!-- Generator: Adobe Illustrator 19.2.1, SVG Export Plug-In . SVG Version: 6.00 Build 0)  -->
<svg version="1.1" id="wallet" xmlns="http://www.w3.org/2000/svg" xmlns:xlink="http://www.w3.org/1999/xlink" x="0px" y="0px"
	 viewBox="0 0 175.5 119.5" style="enable-background:new 0 0 175.5 119.5;" xml:space="preserve">
<style type="text/css">
	.st0{fill:#F5FBFC;stroke:#646A6B;stroke-width:2;stroke-miterlimit:10;}
	.st1{fill:#C8D9DB;}
	.st2{fill:#A682F3;}
	.st3{fill:#F5FBFC;stroke:#646A6B;stroke-width:2;stroke-linecap:round;stroke-miterlimit:10;}
	.st4{fill:#F5FBFC;}
	.st5{fill:none;stroke:#646A6B;stroke-width:2;stroke-linecap:round;stroke-miterlimit:10;}
	.st6{fill:#FFC568;stroke:#474A4C;stroke-width:2;stroke-miterlimit:10;}
	.st7{fill:none;stroke:#474A4C;stroke-width:2;stroke-miterlimit:10;}
	.st8{fill:#F5FBFC;stroke:#474A4C;stroke-width:2;stroke-miterlimit:10;}
	.st9{fill:#FFE795;stroke:#474A4C;stroke-width:2;stroke-miterlimit:10;}
	.st10{fill:#F5FBFC;stroke:#E4EAEA;stroke-miterlimit:10;}
</style>
<g>
	<g>
		<path class="st0" d="M118,115.5H67c-3.9,0-7-3.1-7-7v-98c0-3.9,3.1-7,7-7h51c3.9,0,7,3.1,7,7v98C125,112.4,121.9,115.5,118,115.5z
			"/>
		<circle class="st1" cx="93.3" cy="105.7" r="5"/>
		<rect x="61" y="15.5" class="st2" width="63" height="80"/>
	</g>
	<g>
		<path class="st3" d="M105.7,12.9c0.3,0.9,0.5,1.8,0.5,2.8c0,4.4-3.5,7.9-7.9,7.9c-4.4,0-7.9-3.5-7.9-7.9s3.5-7.9,7.9-7.9
			c1.4,0,2.6,0.3,3.7,0.9"/>
		<g>
			<circle class="st2" cx="98.3" cy="12.6" r="2.2"/>
			<path class="st2" d="M103.2,18c0-0.5-0.3-0.9-0.7-1.1c0,0-0.1,0-0.1,0c-1.2-0.5-2.6-0.8-4-0.8c-1.4,0-2.8,0.3-4,0.8
				c0,0-0.1,0-0.1,0c-0.4,0.2-0.6,0.5-0.7,0.9c0,0,0,0,0,0c0,0.1,0,0.2,0,0.3v0v1.3h1.3h7.1h1.3v-1.2
				C103.2,18.1,103.2,18.1,103.2,18C103.2,18,103.2,18,103.2,18z"/>
		</g>
	</g>
	<g>
		<path class="st3" d="M147.5,59.4c0.4,1,0.6,2,0.6,3.1c0,4.4-3.5,7.9-7.9,7.9s-7.9-3.5-7.9-7.9s3.5-7.9,7.9-7.9
			c1.6,0,3,0.4,4.2,1.2"/>
		<g>
			<circle class="st2" cx="140.2" cy="59.4" r="2.2"/>
			<path class="st2" d="M145.1,64.7c0-0.5-0.3-0.9-0.7-1.1c0,0-0.1,0-0.1,0c-1.2-0.5-2.6-0.8-4-0.8c-1.4,0-2.8,0.3-4,0.8
				c0,0-0.1,0-0.1,0c-0.4,0.2-0.6,0.5-0.7,0.9c0,0,0,0,0,0c0,0.1,0,0.2,0,0.3v0v1.3h1.3h7.1h1.3v-1.2
				C145.1,64.9,145.1,64.9,145.1,64.7C145.1,64.8,145.1,64.8,145.1,64.7z"/>
		</g>
	</g>
	<g>
		<circle class="st4" cx="131.7" cy="28.6" r="20"/>
		<path class="st5" d="M148.8,18.3c1.8,3,2.9,6.6,2.9,10.3c0,11-9,20-20,20s-20-9-20-20s9-20,20-20c3.9,0,7.5,1.1,10.6,3"/>
		<g>
			<circle class="st2" cx="131.6" cy="20.7" r="5.6"/>
			<path class="st2" d="M143.8,34.2c-0.1-1.2-0.8-2.2-1.8-2.7c-0.1,0-0.2-0.1-0.3-0.1c-3.1-1.3-6.5-2.1-10.1-2.1
				c-3.6,0-7,0.8-10.1,2.1c-0.1,0-0.2,0.1-0.2,0.1c-0.9,0.4-1.6,1.3-1.8,2.3c0,0,0,0,0,0c0,0.2-0.1,0.4-0.1,0.6v0v3.3h3.3h17.9h3.3
				v-3c0-0.1,0-0.2,0-0.2S143.9,34.2,143.8,34.2z"/>
		</g>
	</g>
	<g>
		<path class="st6" d="M119.1,74.8h-76c-1.1,0-2-0.9-2-2v-32c0-1.1,0.9-2,2-2h76c1.1,0,2,0.9,2,2v32
			C121.1,73.9,120.2,74.8,119.1,74.8z"/>
		<path class="st7" d="M41.1,49.2c5.7,0,10.4-4.7,10.4-10.4"/>
		<path class="st7" d="M41.1,64.4c5.7,0,10.4,4.7,10.4,10.4"/>
		<path class="st8" d="M56.9,52.6h-26c-1.1,0-2-0.9-2-2v0c0-1.1,0.9-2,2-2h26c1.1,0,2,0.9,2,2v0C58.9,51.7,58,52.6,56.9,52.6z"/>
		<path class="st8" d="M49.1,65.9h-26c-1.1,0-2-0.9-2-2v0c0-1.1,0.9-2,2-2h26c1.1,0,2,0.9,2,2v0C51.1,65,50.2,65.9,49.1,65.9z"/>
		<path class="st7" d="M121.1,49.2c-5.7,0-10.4-4.7-10.4-10.4"/>
		<path class="st7" d="M121.1,64.4c-5.7,0-10.4,4.7-10.4,10.4"/>
		<circle class="st9" cx="81.1" cy="56.8" r="10"/>
		<ellipse class="st9" cx="99.3" cy="56.8" rx="2.5" ry="3.5"/>
		<ellipse class="st9" cx="63.5" cy="56.8" rx="2.5" ry="3.5"/>
	</g>
	<g>
		<circle class="st10" cx="133.9" cy="79.4" r="2"/>
		<circle class="st10" cx="23.2" cy="103.8" r="2"/>
		<circle class="st10" cx="8" cy="52.6" r="2"/>
		<circle class="st10" cx="54.8" cy="86.5" r="2"/>
		<circle class="st10" cx="159" cy="99.8" r="2"/>
		<circle class="st10" cx="37" cy="84.5" r="2"/>
		<circle class="st10" cx="27.7" cy="20.7" r="2"/>
		<circle class="st10" cx="165.5" cy="66.4" r="2"/>
		<g>
			<line class="st10" x1="155.9" y1="80.3" x2="151.7" y2="84.5"/>
			<line class="st10" x1="151.7" y1="80.3" x2="155.9" y2="84.5"/>
		</g>
		<g>
			<line class="st10" x1="44.9" y1="108.5" x2="40.6" y2="112.8"/>
			<line class="st10" x1="40.6" y1="108.5" x2="44.9" y2="112.8"/>
		</g>
		<g>
			<line class="st10" x1="25.3" y1="78.1" x2="21" y2="82.4"/>
			<line class="st10" x1="21" y1="78.1" x2="25.3" y2="82.4"/>
		</g>
		<g>
			<line class="st10" x1="163.5" y1="46.5" x2="159.3" y2="50.8"/>
			<line class="st10" x1="159.3" y1="46.5" x2="163.5" y2="50.8"/>
		</g>
		<g>
			<line class="st10" x1="140.3" y1="108.5" x2="136" y2="112.8"/>
			<line class="st10" x1="136" y1="108.5" x2="140.3" y2="112.8"/>
		</g>
		<g>
			<line class="st10" x1="47" y1="24.2" x2="42.8" y2="28.5"/>
			<line class="st10" x1="42.8" y1="24.2" x2="47" y2="28.5"/>
		</g>
	</g>
</g>
</svg>
