<?xml version="1.0" encoding="utf-8"?>
<!-- Generator: Adobe Illustrator 19.2.1, SVG Export Plug-In . SVG Version: 6.00 Build 0)  -->
<svg version="1.1" id="wallet" xmlns="http://www.w3.org/2000/svg" xmlns:xlink="http://www.w3.org/1999/xlink" x="0px" y="0px"
	 viewBox="0 0 195.7 122.3" style="enable-background:new 0 0 195.7 122.3;" xml:space="preserve">
<style type="text/css">
	.st0{fill:#FFC568;stroke:#474A4C;stroke-width:2;stroke-miterlimit:10;}
	.st1{fill:none;stroke:#474A4C;stroke-width:2;stroke-miterlimit:10;}
	.st2{fill:#FFE795;stroke:#474A4C;stroke-width:2;stroke-miterlimit:10;}
	.st3{fill:#FFFFFF;stroke:#666666;stroke-width:2;stroke-miterlimit:10;}
	.st4{fill:#A682F3;stroke:#666666;stroke-width:2;stroke-miterlimit:10;}
	.st5{fill:#666666;}
	.st6{display:none;}
	.st7{display:inline;fill:#FFC568;stroke:#666666;stroke-width:2;stroke-miterlimit:10;}
	.st8{display:inline;fill:#FFFFFF;stroke:#666666;stroke-width:2;stroke-miterlimit:10;}
	.st9{display:inline;fill:#666666;}
	.st10{fill:#F5FBFC;}
	.st11{fill:none;stroke:#646A6B;stroke-width:2;stroke-linecap:round;stroke-miterlimit:10;}
	.st12{fill:#A682F3;}
	.st13{fill:#F5FBFC;stroke:#E4EAEA;stroke-miterlimit:10;}
</style>
<g>
	<g>
		<path class="st0" d="M90.1,72.7h-76c-1.1,0-2-0.9-2-2v-32c0-1.1,0.9-2,2-2h76c1.1,0,2,0.9,2,2v32C92.1,71.8,91.2,72.7,90.1,72.7z"
			/>
		<path class="st1" d="M12.1,47.1c5.7,0,10.4-4.7,10.4-10.4"/>
		<path class="st1" d="M12.1,62.3c5.7,0,10.4,4.7,10.4,10.4"/>
		<path class="st1" d="M92.1,47.1c-5.7,0-10.4-4.7-10.4-10.4"/>
		<path class="st1" d="M92.1,62.3c-5.7,0-10.4,4.7-10.4,10.4"/>
		<circle class="st2" cx="52.1" cy="54.7" r="10"/>
		<circle class="st2" cx="70.3" cy="54.7" r="2.5"/>
		<circle class="st2" cx="34.5" cy="54.7" r="2.5"/>
	</g>
	<g>
		<path class="st0" d="M107.1,91.7h-76c-1.1,0-2-0.9-2-2v-32c0-1.1,0.9-2,2-2h76c1.1,0,2,0.9,2,2v32
			C109.1,90.8,108.2,91.7,107.1,91.7z"/>
		<path class="st1" d="M29.1,66.1c5.7,0,10.4-4.7,10.4-10.4"/>
		<path class="st1" d="M29.1,81.3c5.7,0,10.4,4.7,10.4,10.4"/>
		<path class="st1" d="M109.1,66.1c-5.7,0-10.4-4.7-10.4-10.4"/>
		<path class="st1" d="M109.1,81.3c-5.7,0-10.4,4.7-10.4,10.4"/>
		<circle class="st2" cx="69.1" cy="73.7" r="10"/>
		<circle class="st2" cx="87.3" cy="73.7" r="2.5"/>
		<circle class="st2" cx="51.5" cy="73.7" r="2.5"/>
	</g>
	<path class="st3" d="M161.1,98.7H91.6c-5.7,0-10.2-4-10.2-8.9V29.5c0-4.9,4.6-8.9,10.2-8.9h69.5c5.7,0,10.2,4,10.2,8.9v60.3
		C171.3,94.7,166.7,98.7,161.1,98.7z"/>
	<g>
		<path class="st4" d="M161.3,97.2c0,3.6-2.9,6.5-6.5,6.5h-70c-3.6,0-6.5-2.9-6.5-6.5v-65c0-3.6,2.9-6.5,6.5-6.5h70
			c3.6,0,6.5,2.9,6.5,6.5V97.2z"/>
		<path class="st3" d="M171.3,54.7h-27.5c-3.8,0-7.5,2.9-7.5,6.7v1.4c0,3.8,3.7,7.9,7.5,7.9h27.5V54.7z"/>
		<circle class="st5" cx="144.3" cy="62.1" r="3.9"/>
	</g>
	<g class="st6">
		<path class="st7" d="M119.3,98.7c0,2.8-2.2,5-5,5h-60c-2.8,0-5-2.2-5-5v-50c0-2.8,2.2-5,5-5h60c2.8,0,5,2.2,5,5V98.7z"/>
		<path class="st7" d="M113.3,98.7c0,2.8-2.2,5-5,5h-54c-2.8,0-5-2.2-5-5v-50c0-2.8,2.2-5,5-5h54c2.8,0,5,2.2,5,5V98.7z"/>
		<path class="st8" d="M120.3,66.7H99c-3,0-5.6,1.6-5.6,4.5v1.1c0,3,2.7,5.4,5.6,5.4h21.4V66.7z"/>
		<circle class="st9" cx="100.1" cy="71.7" r="3"/>
	</g>
	<g>
		<circle class="st10" cx="109.3" cy="64.1" r="20"/>
		<path class="st11" d="M126.5,53.7c1.8,3,2.9,6.6,2.9,10.3c0,11-9,20-20,20s-20-9-20-20s9-20,20-20c3.9,0,7.5,1.1,10.6,3"/>
		<g>
			<circle class="st12" cx="109.3" cy="56.2" r="5.6"/>
			<path class="st12" d="M121.5,69.6c-0.1-1.2-0.8-2.2-1.8-2.7c-0.1,0-0.2-0.1-0.3-0.1c-3.1-1.3-6.5-2.1-10.1-2.1
				c-3.6,0-7,0.8-10.1,2.1c-0.1,0-0.2,0.1-0.2,0.1c-0.9,0.4-1.6,1.3-1.8,2.3c0,0,0,0,0,0c0,0.2-0.1,0.4-0.1,0.6v0v3.3h3.3h17.9h3.3
				v-3c0-0.1,0-0.2,0-0.2S121.5,69.7,121.5,69.6z"/>
		</g>
	</g>
</g>
<g>
	<circle class="st13" cx="181.3" cy="22.4" r="2"/>
	<circle class="st13" cx="31.3" cy="104.5" r="2"/>
	<circle class="st13" cx="6.1" cy="54.3" r="2"/>
	<circle class="st13" cx="81.7" cy="11.7" r="2"/>
	<circle class="st13" cx="179.3" cy="98.7" r="2"/>
	<circle class="st13" cx="14.1" cy="98.7" r="2"/>
	<circle class="st13" cx="25.8" cy="22.4" r="2"/>
	<circle class="st13" cx="187.3" cy="70.1" r="2"/>
	<g>
		<line class="st13" x1="172" y1="112" x2="167.7" y2="116.2"/>
		<line class="st13" x1="167.7" y1="112" x2="172" y2="116.2"/>
	</g>
	<g>
		<line class="st13" x1="63" y1="100.3" x2="58.7" y2="104.5"/>
		<line class="st13" x1="58.7" y1="100.3" x2="63" y2="104.5"/>
	</g>
	<g>
		<line class="st13" x1="23.4" y1="79.8" x2="19.1" y2="84.1"/>
		<line class="st13" x1="19.1" y1="79.8" x2="23.4" y2="84.1"/>
	</g>
	<g>
		<line class="st13" x1="191.6" y1="48.2" x2="187.3" y2="52.5"/>
		<line class="st13" x1="187.3" y1="48.2" x2="191.6" y2="52.5"/>
	</g>
	<g>
		<line class="st13" x1="108.3" y1="110.3" x2="104.1" y2="114.5"/>
		<line class="st13" x1="104.1" y1="110.3" x2="108.3" y2="114.5"/>
	</g>
	<g>
		<line class="st13" x1="58.2" y1="22.3" x2="54" y2="26.6"/>
		<line class="st13" x1="54" y1="22.3" x2="58.2" y2="26.6"/>
	</g>
</g>
</svg>
