<?xml version="1.0" encoding="utf-8"?>
<!-- Generator: Adobe Illustrator 19.2.1, SVG Export Plug-In . SVG Version: 6.00 Build 0)  -->
<svg version="1.1" id="wallet" xmlns="http://www.w3.org/2000/svg" xmlns:xlink="http://www.w3.org/1999/xlink" x="0px" y="0px"
	 viewBox="0 0 162.3 95.5" style="enable-background:new 0 0 162.3 95.5;" xml:space="preserve">
<style type="text/css">
	.st0{fill:#A682F3;stroke:#4D4B54;stroke-width:2;stroke-linecap:round;stroke-miterlimit:10;}
	.st1{clip-path:url(#SVGID_2_);}
	.st2{fill:#FFC568;stroke:#474A4C;stroke-width:2;stroke-miterlimit:10;}
	.st3{fill:none;stroke:#474A4C;stroke-width:2;stroke-miterlimit:10;}
	.st4{fill:#FFE795;stroke:#474A4C;stroke-width:2;stroke-miterlimit:10;}
	.st5{display:none;}
	.st6{display:inline;fill:#FFC568;stroke:#474A4C;stroke-width:2;stroke-miterlimit:10;}
	.st7{display:inline;fill:none;stroke:#474A4C;stroke-width:2;stroke-miterlimit:10;}
	.st8{display:inline;fill:#FFE795;stroke:#474A4C;stroke-width:2;stroke-miterlimit:10;}
	.st9{fill:#A682F3;stroke:#474A4C;stroke-width:2;stroke-linecap:round;stroke-miterlimit:10;}
	.st10{fill:#F5FBFC;}
	.st11{fill:none;stroke:#474A4C;stroke-width:2;stroke-linecap:round;stroke-miterlimit:10;}
	.st12{fill:#A682F3;}
	.st13{fill:#F5FBFC;stroke:#E4EAEA;stroke-miterlimit:10;}
</style>
<g>
	<path class="st0" d="M122.3,25.3h8.2c1.7,0,3,1.3,3,3V53c0,1.7-1.3,3-3,3H31.3c-1.7,0-3-1.3-3-3V28.3c0-1.7,1.3-3,3-3h77.3"/>
	<g>
		<defs>
			<rect id="SVGID_1_" x="8.3" y="34.5" width="139.3" height="78.7"/>
		</defs>
		<clipPath id="SVGID_2_">
			<use xlink:href="#SVGID_1_"  style="overflow:visible;"/>
		</clipPath>
		<g class="st1">
			<g>
				<path class="st2" d="M58.5,62.6v-76c0-1.1,0.9-2,2-2h32c1.1,0,2,0.9,2,2v76c0,1.1-0.9,2-2,2h-32C59.4,64.6,58.5,63.7,58.5,62.6z
					"/>
				<path class="st3" d="M84.1-15.4C84.1-9.7,88.8-5,94.5-5"/>
				<path class="st3" d="M68.9-15.4C68.9-9.7,64.3-5,58.5-5"/>
				<path class="st3" d="M84.1,64.6c0-5.7,4.7-10.4,10.4-10.4"/>
				<path class="st3" d="M68.9,64.6c0-5.7-4.7-10.4-10.4-10.4"/>
				<circle class="st4" cx="76.5" cy="24.6" r="10"/>
				<circle class="st4" cx="76.5" cy="42.8" r="2.5"/>
				<circle class="st4" cx="76.5" cy="7" r="2.5"/>
			</g>
			<g>
				<path class="st2" d="M67.1,89V13c0-1.1,0.9-2,2-2h32c1.1,0,2,0.9,2,2v76c0,1.1-0.9,2-2,2h-32C68,91,67.1,90.1,67.1,89z"/>
				<path class="st3" d="M92.7,11c0,5.7,4.7,10.4,10.4,10.4"/>
				<path class="st3" d="M77.5,11c0,5.7-4.7,10.4-10.4,10.4"/>
				<path class="st3" d="M92.7,91c0-5.7,4.7-10.4,10.4-10.4"/>
				<path class="st3" d="M77.5,91c0-5.7-4.7-10.4-10.4-10.4"/>
				<circle class="st4" cx="85.1" cy="51" r="10"/>
				<circle class="st4" cx="85.1" cy="69.2" r="2.5"/>
				<circle class="st4" cx="85.1" cy="33.4" r="2.5"/>
			</g>
			<g class="st5">
				<path class="st6" d="M93.1,63.4v-76c0-1.1,0.9-2,2-2h32c1.1,0,2,0.9,2,2v76c0,1.1-0.9,2-2,2h-32C94,65.4,93.1,64.5,93.1,63.4z"
					/>
				<path class="st7" d="M118.7-14.6c0,5.7,4.7,10.4,10.4,10.4"/>
				<path class="st7" d="M103.5-14.6c0,5.7-4.7,10.4-10.4,10.4"/>
				<path class="st7" d="M118.7,65.4c0-5.7,4.7-10.4,10.4-10.4"/>
				<path class="st7" d="M103.5,65.4c0-5.7-4.7-10.4-10.4-10.4"/>
				<circle class="st8" cx="111.1" cy="25.4" r="10"/>
				<circle class="st8" cx="111.1" cy="43.6" r="2.5"/>
				<circle class="st8" cx="111.1" cy="7.8" r="2.5"/>
			</g>
		</g>
	</g>
	<line class="st9" x1="38.6" y1="34.5" x2="124.1" y2="34.5"/>
	<g>
		<circle class="st10" cx="37.3" cy="25.3" r="17.1"/>
		<path class="st11" d="M52,16.5c1.6,2.6,2.5,5.6,2.5,8.8c0,9.5-7.7,17.1-17.1,17.1s-17.1-7.7-17.1-17.1S27.8,8.2,37.3,8.2
			c3.3,0,6.4,0.9,9,2.6"/>
		<g>
			<circle class="st12" cx="37.3" cy="18.6" r="4.8"/>
			<path class="st12" d="M47.7,30.1c-0.1-1-0.7-1.9-1.6-2.3c-0.1,0-0.2-0.1-0.2-0.1c-2.7-1.2-5.6-1.8-8.7-1.8c-3.1,0-6,0.6-8.7,1.8
				c-0.1,0-0.1,0.1-0.2,0.1c-0.8,0.4-1.4,1.1-1.5,2c0,0,0,0,0,0c0,0.2-0.1,0.4-0.1,0.5v0v2.8h2.8H45h2.8v-2.6c0-0.1,0-0.1,0-0.2
				S47.7,30.2,47.7,30.1z"/>
		</g>
	</g>
</g>
<g>
	<circle class="st13" cx="111.8" cy="7" r="2"/>
	<circle class="st13" cx="117.1" cy="68.4" r="2"/>
	<circle class="st13" cx="4" cy="28.3" r="2"/>
	<circle class="st13" cx="46.7" cy="72.1" r="2"/>
	<circle class="st13" cx="29" cy="81.4" r="2"/>
	<circle class="st13" cx="27" cy="65.1" r="2"/>
	<circle class="st13" cx="24.6" cy="4.4" r="2"/>
	<circle class="st13" cx="156.5" cy="35.1" r="2"/>
	<g>
		<line class="st13" x1="143.9" y1="57.9" x2="139.6" y2="62.1"/>
		<line class="st13" x1="139.6" y1="57.9" x2="143.9" y2="62.1"/>
	</g>
	<g>
		<line class="st13" x1="52.8" y1="86.2" x2="48.6" y2="90.4"/>
		<line class="st13" x1="48.6" y1="86.2" x2="52.8" y2="90.4"/>
	</g>
	<g>
		<line class="st13" x1="13.2" y1="55.8" x2="9" y2="60"/>
		<line class="st13" x1="9" y1="55.8" x2="13.2" y2="60"/>
	</g>
	<g>
		<line class="st13" x1="141.5" y1="14.1" x2="137.2" y2="18.4"/>
		<line class="st13" x1="137.2" y1="14.1" x2="141.5" y2="18.4"/>
	</g>
	<g>
		<line class="st13" x1="128.2" y1="86.2" x2="124" y2="90.4"/>
		<line class="st13" x1="124" y1="86.2" x2="128.2" y2="90.4"/>
	</g>
	<g>
		<line class="st13" x1="74.9" y1="11.9" x2="70.7" y2="16.1"/>
		<line class="st13" x1="70.7" y1="11.9" x2="74.9" y2="16.1"/>
	</g>
</g>
</svg>
