<?xml version="1.0" encoding="utf-8"?>
<!-- Generator: Adobe Illustrator 19.2.1, SVG Export Plug-In . SVG Version: 6.00 Build 0)  -->
<svg version="1.1" id="Layer_2" xmlns="http://www.w3.org/2000/svg" xmlns:xlink="http://www.w3.org/1999/xlink" x="0px" y="0px"
	 viewBox="0 0 127.5 65" style="enable-background:new 0 0 127.5 65;" xml:space="preserve">
<style type="text/css">
	.st0{fill:url(#SVGID_1_);}
	.st1{fill:url(#SVGID_2_);}
	.st2{fill:url(#SVGID_3_);}
	.st3{fill:#6C5CA7;}
</style>
<g>
	<linearGradient id="SVGID_1_" gradientUnits="userSpaceOnUse" x1="28.2824" y1="62.2308" x2="28.2824" y2="2.8395">
		<stop  offset="0" style="stop-color:#9D76B3"/>
		<stop  offset="1" style="stop-color:#6C5CA7"/>
	</linearGradient>
	<path class="st0" d="M28.3,3C15.5,3,5.2,13.3,5.2,26.1v32.3c0,2.5,2.1,4.6,4.6,4.6s4.6-2.1,4.6-4.6V44.5c3.9,2.9,8.7,4.6,13.8,4.6
		c12.7,0,23.1-10.3,23.1-23.1C51.4,13.3,41,3,28.3,3z M28.3,39.9c-7.6,0-13.8-6.2-13.8-13.8s6.2-13.8,13.8-13.8s13.8,6.2,13.8,13.8
		S35.9,39.9,28.3,39.9z"/>
	<linearGradient id="SVGID_2_" gradientUnits="userSpaceOnUse" x1="65.2033" y1="48.5393" x2="65.2033" y2="2.3882">
		<stop  offset="0" style="stop-color:#FACC0B"/>
		<stop  offset="1" style="stop-color:#EF8843"/>
	</linearGradient>
	<path class="st1" d="M65.2,3C52.5,3,42.1,13.3,42.1,26.1c0,12.7,10.3,23.1,23.1,23.1c5.2,0,10-1.7,13.8-4.6c0,2.5,2.1,4.6,4.6,4.6
		c2.5,0,4.6-2.1,4.6-4.6V26.1C88.3,13.3,77.9,3,65.2,3z M65.2,39.9c-7.6,0-13.8-6.2-13.8-13.8s6.2-13.8,13.8-13.8S79,18.4,79,26.1
		S72.8,39.9,65.2,39.9z"/>
	<linearGradient id="SVGID_3_" gradientUnits="userSpaceOnUse" x1="102.1242" y1="62.8462" x2="102.1242" y2="21.3102">
		<stop  offset="0" style="stop-color:#9D76B3"/>
		<stop  offset="1" style="stop-color:#6C5CA7"/>
	</linearGradient>
	<path class="st2" d="M120.6,21.5c-2.5,0-4.6,2.1-4.6,4.6v0c0,7.6-6.2,13.8-13.8,13.8s-13.8-6.2-13.8-13.8v0l0,0v0
		c0-2.5-2.1-4.6-4.6-4.6S79,23.5,79,26.1v0l0,0c0,12.7,10.3,23.1,23.1,23.1c5.2,0,10-1.7,13.8-4.6v13.8c0,2.5,2.1,4.6,4.6,4.6
		c2.5,0,4.6-2.1,4.6-4.6V26.1C125.2,23.5,123.1,21.5,120.6,21.5z"/>
	<g>
		<path class="st3" d="M97.4,17.3c-1.1,0.8-2.4,1.3-3.8,1.3c-0.9,0-1.8-0.2-2.6-0.5c-0.9-0.4-1.6-0.9-2.1-1.6
			c-0.3-0.4-0.5-0.8-0.6-1.3c0-0.2-0.1-0.3-0.1-0.5c-0.1-0.5,0.3-0.9,0.7-0.9l2.7,0c0.2,0,0.3,0.1,0.4,0.3c0.3,0.7,0.8,1.1,1.7,1.1
			c1.1,0,1.6-0.6,1.6-1.7c0-0.8-0.4-1.2-1.2-1.4C93.9,12,93.5,12,93.1,12l-0.6,0c-0.2,0-0.4-0.2-0.4-0.4v-2c0-0.2,0.2-0.4,0.4-0.4
			l0,0c0.2,0,0.3,0,0.4,0c0.3,0,0.6-0.1,0.8-0.2c0.6-0.2,0.9-0.7,0.9-1.3c0-0.9-0.3-1.3-1-1.3c-0.7,0-1,0.3-1.1,1
			c0,0.2-0.2,0.3-0.4,0.3l-2.6,0c-0.5,0-0.8-0.4-0.7-0.9c0.2-1.1,0.7-1.9,1.4-2.6C91,3.4,92.2,3,93.7,3c1.3,0,2.3,0.4,3.2,1.1
			c1,0.8,1.5,1.8,1.5,3c0,1.4-0.7,2.4-2,3.1c1.9,0.6,2.8,1.8,2.8,3.6C99.2,15.2,98.6,16.4,97.4,17.3z"/>
		<path class="st3" d="M110.8,16.9c-1.1,1.1-2.5,1.6-4.1,1.6c-1.7,0-3.1-0.5-4.2-1.6c-1.1-1.1-1.7-2.5-1.7-4.2
			c0-0.7,0.1-1.4,0.4-2.1c0.2-0.6,0.6-1.3,1-1.9l3.5-5.1c0.1-0.2,0.4-0.3,0.6-0.3h3.1c0.4,0,0.6,0.5,0.4,0.8L107,7.8l0,0
			c0.1,0,0.2-0.1,0.4-0.1l0.4,0c1.4,0,2.5,0.5,3.4,1.5c0.9,1,1.3,2.2,1.3,3.6C112.5,14.5,112,15.9,110.8,16.9z M108.1,11.7
			c-0.4-0.4-0.9-0.6-1.5-0.6c-0.6,0-1.1,0.2-1.4,0.6c-0.4,0.4-0.6,0.9-0.6,1.4c0,0.6,0.2,1.1,0.6,1.5c0.4,0.4,0.9,0.6,1.5,0.6
			s1.1-0.2,1.5-0.6c0.4-0.4,0.6-0.9,0.6-1.5C108.7,12.6,108.5,12.1,108.1,11.7z"/>
		<path class="st3" d="M124.8,15.2c-1,2.2-2.7,3.3-5.3,3.3c-1.4,0-2.7-0.4-3.7-1.1c-0.8-0.6-1.4-1.3-1.7-2.2c-0.2-0.5,0.2-1,0.7-1
			l2.5,0c0.2,0,0.4,0.1,0.6,0.3c0.4,0.5,0.9,0.7,1.6,0.7c0.6,0,1-0.2,1.4-0.6c0.4-0.4,0.6-0.9,0.6-1.4c0-1.3-0.7-2-2-2
			c-0.8,0-1.3,0.3-1.7,0.8c-0.2,0.3-0.5,0.4-0.8,0.3l-1.9-0.5c-0.4-0.1-0.6-0.5-0.6-0.8l1.1-7.2c0.1-0.4,0.4-0.6,0.7-0.6h6.9
			c0.4,0,0.7,0.3,0.7,0.7v1.7c0,0.4-0.3,0.7-0.7,0.7h-4.6l-0.3,2c0.5-0.3,1.2-0.4,2-0.4c2.2,0,3.8,1,4.6,3c0.3,0.6,0.4,1.3,0.4,2
			C125.2,13.9,125.1,14.6,124.8,15.2z"/>
	</g>
</g>
</svg>
