
<svg xmlns="http://www.w3.org/2000/svg" x="0px" y="0px"
	 viewBox="0 0 39 66" style="enable-background:new 0 0 39 66;" xml:space="preserve">
	 <style>
	 	
	 	path{
	 		fill: #ffcc00;
	 	}
	 	
	 </style>
<path class="iphone" d="M6.3,51.4v-42h27v42H6.3z M15.3,58.8c0-1.2,0.4-2.3,1.3-3.2c0.9-0.9,1.9-1.3,3.2-1.3c1.2,0,2.3,0.4,3.2,1.3
	c0.9,0.9,1.3,1.9,1.3,3.2c0,1.2-0.4,2.3-1.3,3.2c-0.9,0.9-1.9,1.3-3.2,1.3c-1.2,0-2.3-0.4-3.2-1.3C15.7,61.1,15.3,60.1,15.3,58.8z
	 M7.8,0.3C5.8,0.3,4,1.1,2.6,2.6C1.1,4.1,0.4,5.9,0.4,7.9v50.9c0,2.1,0.7,3.8,2.2,5.3c1.5,1.5,3.2,2.3,5.3,2.3h24
	c2.1,0,3.8-0.7,5.3-2.3c1.5-1.5,2.2-3.3,2.2-5.3V7.9c0-2.1-0.7-3.8-2.2-5.3c-1.5-1.5-3.2-2.3-5.3-2.3H7.8z"/>
</svg>
