<?xml version="1.0" encoding="utf-8"?>
<!-- Generator: Adobe Illustrator 19.2.1, SVG Export Plug-In . SVG Version: 6.00 Build 0)  -->
<svg version="1.1" id="wallet" xmlns="http://www.w3.org/2000/svg" xmlns:xlink="http://www.w3.org/1999/xlink" x="0px" y="0px"
	 viewBox="0 0 148 149.1" style="enable-background:new 0 0 148 149.1;" xml:space="preserve">
<style type="text/css">
	.st0{fill-rule:evenodd;clip-rule:evenodd;fill:#0089C7;}
	.st1{fill-rule:evenodd;clip-rule:evenodd;fill:#005A83;}
	.st2{fill-rule:evenodd;clip-rule:evenodd;fill:#BABAB9;}
	.st3{fill-rule:evenodd;clip-rule:evenodd;fill:#29ABE2;}
	.st4{fill-rule:evenodd;clip-rule:evenodd;fill:#B3B3B3;}
	.st5{fill:#F2F2F2;}
	.st6{fill-rule:evenodd;clip-rule:evenodd;fill:#FFFFFF;stroke:#F2F2F2;stroke-width:0.1984;stroke-miterlimit:10;}
	.st7{fill-rule:evenodd;clip-rule:evenodd;fill:#FAA719;}
	.st8{fill-rule:evenodd;clip-rule:evenodd;fill:#EF3624;}
	.st9{fill:#3E3D3F;}
	.st10{fill:#19181B;}
	.st11{fill:#977BFF;}
	.st12{fill:#835BEF;}
	.st13{fill:#FFFFFF;}
	.st14{fill:#D62147;}
	.st15{fill:#FF2756;}
	.st16{opacity:0.6;}
</style>
<g>
	<path class="st0" d="M18,108H67c1.1,0,2,0.9,2,2v26.3c0,1.1-0.9,2-2,2H18c-1.1,0-2-0.9-2-2V110C15.9,108.9,16.8,108,18,108L18,108z
		"/>
	<rect x="15.9" y="111.2" class="st1" width="53.1" height="8.6"/>
	<path class="st2" d="M19.4,125.4h46.1c0.6,0,1.1-0.5,1.1-1.1v-1c0-0.6-0.5-1.1-1.1-1.1H19.4c-0.6,0-1.1,0.5-1.1,1.1v1
		C18.3,124.9,18.8,125.4,19.4,125.4L19.4,125.4z"/>
	<path class="st1" d="M2,118.7h49.1c1.1,0,2,0.9,2,2v26.3c0,1.1-0.9,2-2,2H2c-1.1,0-2-0.9-2-2v-26.3C0,119.6,0.9,118.7,2,118.7
		L2,118.7z"/>
	<path class="st3" d="M2,118.7h49.1c1.1,0,2,0.9,2,2V131H0v-10.3C0,119.6,0.9,118.7,2,118.7L2,118.7z"/>
	<path class="st4" d="M5.8,134.7h6.6c0.7,0,1.3,0.6,1.3,1.3v6.6c0,0.7-0.6,1.3-1.3,1.3H5.8c-0.7,0-1.3-0.6-1.3-1.3V136
		C4.5,135.3,5.1,134.7,5.8,134.7L5.8,134.7z"/>
	<path class="st5" d="M5.8,134.6h6.6c0.4,0,0.7,0.1,1,0.4l0,0l0,0c0.2,0.2,0.4,0.6,0.4,0.9v6.6c0,0.4-0.2,0.7-0.4,0.9l0,0
		c-0.2,0.2-0.6,0.4-1,0.4H5.8c-0.4,0-0.7-0.1-0.9-0.4c-0.2-0.2-0.4-0.6-0.4-0.9V136c0-0.4,0.1-0.7,0.4-0.9l0,0
		C5.1,134.8,5.4,134.6,5.8,134.6L5.8,134.6z M12.3,134.7H5.8c-0.3,0-0.6,0.1-0.9,0.4l0,0c-0.2,0.2-0.3,0.5-0.3,0.9v6.6
		c0,0.3,0.1,0.6,0.3,0.9c0.2,0.2,0.5,0.4,0.9,0.4h6.6c0.3,0,0.7-0.1,0.9-0.4l0,0c0.2-0.2,0.4-0.5,0.4-0.9V136c0-0.3-0.1-0.6-0.4-0.9
		l0,0C13,134.9,12.7,134.7,12.3,134.7L12.3,134.7z"/>
	<path class="st5" d="M7,139.3H4.5v1.9H7V139.3z M4.5,139.2h2.6h0.1v0.1v2v0.1H7.1H4.5H4.4v-0.1L4.5,139.2L4.5,139.2L4.5,139.2z"/>
	<path class="st5" d="M7.1,139.3H4.5H4.4v-0.1v-2v-0.1h0.1h2.6h0.1v0.1L7.1,139.3L7.1,139.3L7.1,139.3z M4.5,139.2H7v-1.9H4.5V139.2
		z"/>
	<path class="st5" d="M11,139.2h2.6h0.1v0.1v2v0.1h-0.1H11h-0.1v-0.1L11,139.2L11,139.2L11,139.2z M13.5,139.3H11v1.9h2.5V139.3z"/>
	<path class="st5" d="M11,139.2h2.5v-1.9H11V139.2z M13.6,139.3H11h-0.1v-0.1v-2v-0.1H11h2.6h0.1v0.1L13.6,139.3L13.6,139.3
		L13.6,139.3z"/>
	<path class="st5" d="M8.5,134.6H11H11v0.1v0.1h-0.1h-0.8H8.5c-0.4,0-0.7,0.1-0.9,0.4l0,0c-0.2,0.2-0.4,0.6-0.4,0.9v5.6
		c0,0.1,0,0.1,0.1,0.2l0,0c0,0,0.1,0.1,0.2,0.1h3.5v-4.8H11v4.9v0.1H11H7.4c-0.1,0-0.2,0-0.3-0.1l0,0c-0.1-0.1-0.1-0.2-0.1-0.3v-5.6
		c0-0.4,0.2-0.8,0.4-1l0,0l0,0C7.7,134.8,8.1,134.6,8.5,134.6L8.5,134.6z"/>
	<path class="st5" d="M8.5,134.6H11H11v0.1v0.1h-0.1h-0.8H8.5c-0.4,0-0.7,0.1-0.9,0.4l0,0c-0.2,0.2-0.4,0.6-0.4,0.9v5.3H7v-5.3
		c0-0.4,0.2-0.8,0.4-1l0,0l0,0C7.7,134.8,8.1,134.6,8.5,134.6L8.5,134.6z M11,137.2v5.2c0,0.4-0.2,0.8-0.4,1.1l0,0l0,0
		c-0.3,0.3-0.7,0.4-1.1,0.4H7.1H7v-0.1v-0.1h0.1h0.6h1.8c0.4,0,0.7-0.2,1-0.4l0,0c0.2-0.2,0.4-0.6,0.4-1v-5.2H11z"/>
	<path class="st6" d="M17.2,140.2c0,0.5,0.4,0.9,0.8,0.9c0.5,0,0.8-0.4,0.8-0.9c0-0.5-0.4-0.9-0.8-0.9c-0.1,0-0.3,0-0.4,0.1l1.1-1.7
		h-0.1l-1.3,1.9C17.3,139.8,17.2,140,17.2,140.2L17.2,140.2z M17.3,140.2c0-0.4,0.3-0.8,0.7-0.8c0.4,0,0.8,0.3,0.8,0.8
		c0,0.4-0.3,0.8-0.8,0.8C17.6,141,17.3,140.7,17.3,140.2L17.3,140.2z M19.4,137.8h2.2l-2.1,3.3h0.1l2.2-3.3L19.4,137.8L19.4,137.8z
		 M22.1,140.2c0,0.5,0.4,0.9,0.8,0.9c0.4,0,0.8-0.4,0.8-0.9c0-0.4-0.2-0.7-0.6-0.8c0.3-0.1,0.5-0.4,0.5-0.8c0-0.5-0.3-0.8-0.8-0.8
		c-0.4,0-0.8,0.4-0.8,0.8c0,0.4,0.2,0.7,0.5,0.8C22.3,139.5,22.1,139.8,22.1,140.2L22.1,140.2z M22.1,140.2c0-0.4,0.3-0.8,0.7-0.8h0
		h0c0.4,0,0.7,0.4,0.7,0.8c0,0.4-0.3,0.8-0.7,0.8C22.5,141,22.1,140.7,22.1,140.2L22.1,140.2z M22.2,138.6c0-0.4,0.3-0.8,0.7-0.8
		c0.4,0,0.7,0.3,0.7,0.8c0,0.4-0.3,0.7-0.7,0.7h0C22.5,139.3,22.2,139,22.2,138.6L22.2,138.6z M26.1,138.6c0-0.5-0.4-0.9-0.8-0.9
		c-0.4,0-0.8,0.4-0.8,0.9c0,0.5,0.4,0.9,0.8,0.9c0.1,0,0.3,0,0.4-0.1l-1.1,1.7h0.1l1.3-1.9C26.1,139,26.1,138.8,26.1,138.6
		L26.1,138.6z M26.1,138.6c0,0.4-0.3,0.8-0.7,0.8c-0.4,0-0.7-0.3-0.7-0.8c0-0.4,0.3-0.8,0.7-0.8C25.7,137.8,26.1,138.2,26.1,138.6
		L26.1,138.6z M29.2,137.8h1.1l-1.1,1.7l0.1,0.1c0.1-0.1,0.3-0.2,0.5-0.2c0.4,0,0.7,0.3,0.7,0.8c0,0.4-0.3,0.8-0.7,0.8
		c-0.2,0-0.4-0.1-0.5-0.2l-0.1,0.1c0.1,0.1,0.3,0.2,0.5,0.2c0.5,0,0.8-0.4,0.8-0.9c0-0.5-0.4-0.9-0.8-0.9c-0.1,0-0.2,0-0.4,0.1
		l1-1.6l0.1-0.1L29.2,137.8L29.2,137.8z M32.9,141.1L32.9,141.1l0.1-0.7h0.6v-0.1H33v-2.5h-0.1l-1.7,2.6h1.8V141.1z M31.3,140.3
		l1.6-2.4v2.4H31.3z M34.2,139.4h0.5c0.4,0,0.7,0.3,0.7,0.8c0,0.4-0.3,0.8-0.7,0.8c-0.4,0-0.7-0.4-0.7-0.8h-0.1
		c0,0.5,0.4,0.9,0.8,0.9c0.5,0,0.8-0.4,0.8-0.9c0-0.5-0.4-0.9-0.8-0.9L34.2,139.4l0.1-1.6h1.2v-0.1h-1.3V139.4z M36.3,140.2
		c0,0.5,0.4,0.9,0.8,0.9c0.4,0,0.8-0.4,0.8-0.9c0-0.5-0.4-0.9-0.8-0.9c-0.1,0-0.3,0-0.4,0.1l1.1-1.7h-0.1l-1.3,1.9
		C36.4,139.8,36.3,140,36.3,140.2L36.3,140.2z M36.4,140.2c0-0.4,0.3-0.8,0.7-0.8c0.4,0,0.7,0.3,0.7,0.8c0,0.4-0.3,0.8-0.7,0.8
		C36.7,141,36.4,140.7,36.4,140.2L36.4,140.2z M41.4,141.1L41.4,141.1l0.1-3.3h-0.1V141.1z M42.8,138.6c0-0.4,0.3-0.8,0.7-0.8
		c0.4,0,0.7,0.4,0.7,0.8c0,0.2-0.1,0.3-0.2,0.5l-1.3,2h1.5V141H43l1.2-1.9c0.1-0.2,0.2-0.3,0.2-0.5c0-0.5-0.4-0.9-0.8-0.9
		C43.1,137.8,42.8,138.1,42.8,138.6L42.8,138.6z M45.3,137.8h1.1l-1.1,1.7l0.1,0.1c0.1-0.1,0.3-0.2,0.5-0.2c0.4,0,0.7,0.3,0.7,0.8
		c0,0.4-0.3,0.8-0.7,0.8c-0.2,0-0.4-0.1-0.5-0.2l-0.1,0.1c0.1,0.1,0.3,0.2,0.6,0.2c0.5,0,0.8-0.4,0.8-0.9c0-0.5-0.4-0.9-0.8-0.9
		c-0.1,0-0.2,0-0.4,0.1l1-1.6l0.1-0.1L45.3,137.8L45.3,137.8z M49,141.1L49,141.1l0.1-0.7h0.6v-0.1h-0.6v-2.5H49l-1.7,2.6H49V141.1z
		 M47.4,140.3l1.6-2.4v2.4H47.4z"/>
	<path class="st7" d="M11.8,128.6c1.9,0,3.5-1.6,3.5-3.5c0-1.9-1.6-3.5-3.5-3.5c-1.9,0-3.5,1.6-3.5,3.5
		C8.3,127.1,9.9,128.6,11.8,128.6L11.8,128.6z"/>
	<path class="st8" d="M8.3,128.6c1.9,0,3.5-1.6,3.5-3.5c0-1.9-1.6-3.5-3.5-3.5c-1.9,0-3.5,1.6-3.5,3.5
		C4.8,127.1,6.4,128.6,8.3,128.6L8.3,128.6z"/>
	<path class="st6" d="M21.7,126.6c-0.3,0.4-0.8,0.6-1.4,0.6c-1.1,0-1.9-0.9-1.9-1.9c0-1.1,0.9-1.9,1.9-1.9c0.5,0,1,0.2,1.4,0.6
		l0.1-0.1c-0.4-0.4-0.9-0.6-1.4-0.6c-1.1,0-2.1,0.9-2.1,2c0,1.1,0.9,2,2.1,2C20.9,127.3,21.4,127.1,21.7,126.6L21.7,126.6z
		 M22.4,127.3L23,126h2.5l0.6,1.3h0.1l-1.9-4.1h-0.1l-1.9,4.1H22.4z M24.3,123.3l1.2,2.5h-2.4L24.3,123.3z M29.1,127.3h0.1l-1-1.7
		c0.7,0,1.2-0.6,1.2-1.2c0-0.7-0.6-1.2-1.2-1.2h-1.4v4.1H27v-1.7h1.2L29.1,127.3z M29.4,124.4c0,0.6-0.5,1.1-1.1,1.1H27v-2.2h1.3
		C28.9,123.3,29.4,123.8,29.4,124.4L29.4,124.4z M30.4,127.3h1.5c1.1,0,2-0.9,2-2c0-1.1-0.9-2-2-2h-1.5V127.3z M33.8,125.2
		c0,1.1-0.9,1.9-1.9,1.9h-1.4v-3.9h1.4C32.9,123.3,33.8,124.2,33.8,125.2L33.8,125.2z"/>
	<path class="st6" d="M47.8,125.3c-0.5,0-0.9-0.4-0.9-0.9c0-0.5,0.4-0.9,0.9-0.9c0.5,0,0.9,0.4,0.9,0.9h0.1c0-0.5-0.4-1-1-1V123
		h-0.1v0.3c-0.6,0-1,0.5-1,1c0,0.6,0.5,1,1,1V125.3z M46.9,126.4c0,0.5,0.4,1,0.9,1c0.5,0,0.9-0.4,0.9-1c0-0.5-0.4-0.9-0.9-0.9v-0.1
		c0.6,0,1.1,0.5,1.1,1c0,0.6-0.4,1-1,1.1v0h-0.1v0c-0.6,0-1-0.5-1-1.1H46.9z M47.8,127.8h0.1v-0.3h-0.1h0V127.8z"/>
</g>
<g>
	<g>
		<g>
			<path class="st9" d="M124.8,137.7c0,6.3-5.1,11.3-11.3,11.3h-64c-6.3,0-11.3-5.1-11.3-11.3V11.3C38.2,5.1,43.2,0,49.5,0h64
				c6.3,0,11.3,5.1,11.3,11.3V137.7z"/>
			<circle class="st10" cx="81.5" cy="135.8" r="7.9"/>
		</g>
		<rect x="47.1" y="8.8" class="st11" width="68.9" height="114.6"/>
		<polygon class="st12" points="115.9,123.4 47.1,123.4 47.1,123.4 115.9,8.8 		"/>
	</g>
</g>
<g>
	<path class="st13" d="M147.7,22c-14.7,1.2-23.1-7.3-23.1-7.3s-8.4,8.5-23.1,7.3c0,0-4.6,39.2,23.1,48C152.4,61.2,147.7,22,147.7,22
		z"/>
	<path class="st14" d="M143.9,26.6c-10.5,0-19.3-6.1-19.3-6.1s-8.7,6.1-19.3,6.1c0,0-1.4,31.6,19.3,38.8
		C145.3,58.1,143.9,26.6,143.9,26.6z"/>
	<path class="st15" d="M142.9,27.4c-10,0-18.3-5.8-18.3-5.8s-8.3,5.8-18.3,5.8c0,0-1.3,29.9,18.3,36.8
		C144.3,57.3,142.9,27.4,142.9,27.4z"/>
	<g class="st16">
		<path class="st14" d="M107,42.3c2.1,9,6.9,19.3,17.6,23v-23H107z"/>
		<path class="st14" d="M143.9,26.6c-10.5,0-19.3-6.1-19.3-6.1v21.9h17.6C144.3,33.9,143.9,26.6,143.9,26.6z"/>
	</g>
	<g>
		<path class="st13" d="M132,50.4c0,0.6-0.5,1.1-1.1,1.1h-12.6c-0.6,0-1.1-0.5-1.1-1.1V38.1c0-0.6,0.5-1.1,1.1-1.1h12.6
			c0.6,0,1.1,0.5,1.1,1.1V50.4z"/>
		<g>
			<path class="st13" d="M129.4,40.1h-9.5v-5.8c0-2.7,2.1-4.8,4.7-4.8c2.6,0,4.7,2.2,4.7,4.8V40.1z M122,38h5.3v-3.7
				c0-1.5-1.2-2.7-2.7-2.7c-1.5,0-2.7,1.2-2.7,2.7V38z"/>
		</g>
		<g>
			<ellipse class="st15" cx="124.6" cy="42.8" rx="2" ry="2.1"/>
			<polygon class="st15" points="125.4,43.4 124.6,43.4 123.9,43.4 122.9,48.1 124.6,48.1 126.4,48.1 			"/>
		</g>
	</g>
</g>
<g>
	<path class="st13" d="M70.9,71.6c3.6,7,8.9,12.2,15.8,15.8l5.3-5.3c0.7-0.7,1.6-0.9,2.5-0.6c2.7,0.9,5.5,1.3,8.5,1.3
		c0.7,0,1.2,0.2,1.7,0.7c0.4,0.4,0.7,1,0.7,1.7v8.4c0,0.7-0.2,1.2-0.7,1.7c-0.4,0.4-1,0.7-1.7,0.7c-11.2,0-20.8-4-28.8-12
		s-12-17.6-12-28.8c0-0.7,0.2-1.2,0.7-1.7s1-0.7,1.7-0.7H73c0.7,0,1.2,0.2,1.7,0.7c0.4,0.4,0.7,1,0.7,1.7c0,3,0.4,5.8,1.3,8.5
		c0.3,1,0.1,1.8-0.6,2.5L70.9,71.6z"/>
</g>
</svg>
