<?xml version="1.0" encoding="utf-8"?>
<!-- Generator: Adobe Illustrator 19.2.1, SVG Export Plug-In . SVG Version: 6.00 Build 0)  -->
<svg version="1.1" id="wallet" xmlns="http://www.w3.org/2000/svg" xmlns:xlink="http://www.w3.org/1999/xlink" x="0px" y="0px"
	 viewBox="0 0 149.4 149.3" style="enable-background:new 0 0 149.4 149.3;" xml:space="preserve">
<style type="text/css">
	.st0{fill-rule:evenodd;clip-rule:evenodd;fill:#0089C7;}
	.st1{fill-rule:evenodd;clip-rule:evenodd;fill:#005A83;}
	.st2{fill-rule:evenodd;clip-rule:evenodd;fill:#BABAB9;}
	.st3{fill-rule:evenodd;clip-rule:evenodd;fill:#29ABE2;}
	.st4{fill-rule:evenodd;clip-rule:evenodd;fill:#B3B3B3;}
	.st5{fill:#F2F2F2;}
	.st6{fill-rule:evenodd;clip-rule:evenodd;fill:#FFFFFF;stroke:#F2F2F2;stroke-width:0.1984;stroke-miterlimit:10;}
	.st7{fill-rule:evenodd;clip-rule:evenodd;fill:#FAA719;}
	.st8{fill-rule:evenodd;clip-rule:evenodd;fill:#EF3624;}
	.st9{fill:#3E3D3F;}
	.st10{fill:#19181B;}
	.st11{fill:#977BFF;}
	.st12{fill:#835BEF;}
	.st13{display:none;opacity:0.2;fill:#D3D3DD;}
	.st14{fill:#FFFFFF;}
	.st15{fill:#D62147;}
	.st16{fill:#FF2756;}
	.st17{opacity:0.6;}
	.st18{fill:#FFFFFF;stroke:#F2F2F2;stroke-width:0.1984;stroke-miterlimit:10;}
	.st19{fill:#FF9E5E;}
	.st20{fill:#FCC5A7;}
	.st21{fill:#F7EAE2;}
</style>
<g>
	<path class="st0" d="M18,107.3H67c1.1,0,2,0.9,2,2v26.3c0,1.1-0.9,2-2,2H18c-1.1,0-2-0.9-2-2v-26.3C15.9,108.3,16.8,107.3,18,107.3
		L18,107.3z"/>
	<rect x="15.9" y="110.5" class="st1" width="53.1" height="8.6"/>
	<path class="st2" d="M19.4,124.7h46.1c0.6,0,1.1-0.5,1.1-1.1v-1c0-0.6-0.5-1.1-1.1-1.1H19.4c-0.6,0-1.1,0.5-1.1,1.1v1
		C18.3,124.2,18.8,124.7,19.4,124.7L19.4,124.7z"/>
	<path class="st1" d="M2,118.1h49.1c1.1,0,2,0.9,2,2v26.3c0,1.1-0.9,2-2,2H2c-1.1,0-2-0.9-2-2v-26.3C0,119,0.9,118.1,2,118.1
		L2,118.1z"/>
	<path class="st3" d="M2,118.1h49.1c1.1,0,2,0.9,2,2v10.3H0v-10.3C0,119,0.9,118.1,2,118.1L2,118.1z"/>
	<path class="st4" d="M5.8,134.1h6.6c0.7,0,1.3,0.6,1.3,1.3v6.6c0,0.7-0.6,1.3-1.3,1.3H5.8c-0.7,0-1.3-0.6-1.3-1.3v-6.6
		C4.5,134.6,5.1,134.1,5.8,134.1L5.8,134.1z"/>
	<path class="st5" d="M5.8,134h6.6c0.4,0,0.7,0.1,1,0.4l0,0l0,0c0.2,0.2,0.4,0.6,0.4,0.9v6.6c0,0.4-0.2,0.7-0.4,0.9l0,0
		c-0.2,0.2-0.6,0.4-1,0.4H5.8c-0.4,0-0.7-0.1-0.9-0.4c-0.2-0.2-0.4-0.6-0.4-0.9v-6.6c0-0.4,0.1-0.7,0.4-0.9l0,0
		C5.1,134.1,5.4,134,5.8,134L5.8,134z M12.3,134.1H5.8c-0.3,0-0.6,0.1-0.9,0.4l0,0c-0.2,0.2-0.3,0.5-0.3,0.9v6.6
		c0,0.3,0.1,0.6,0.3,0.9c0.2,0.2,0.5,0.4,0.9,0.4h6.6c0.3,0,0.7-0.1,0.9-0.4l0,0c0.2-0.2,0.4-0.5,0.4-0.9v-6.6
		c0-0.3-0.1-0.6-0.4-0.9l0,0C13,134.2,12.7,134.1,12.3,134.1L12.3,134.1z"/>
	<path class="st5" d="M7,138.7H4.5v1.9H7V138.7z M4.5,138.6h2.6h0.1v0.1v2v0.1H7.1H4.5H4.4v-0.1L4.5,138.6L4.5,138.6L4.5,138.6z"/>
	<path class="st5" d="M7.1,138.7H4.5H4.4v-0.1v-2v-0.1h0.1h2.6h0.1v0.1L7.1,138.7L7.1,138.7L7.1,138.7z M4.5,138.6H7v-1.9H4.5V138.6
		z"/>
	<path class="st5" d="M11,138.6h2.6h0.1v0.1v2v0.1h-0.1H11h-0.1v-0.1L11,138.6L11,138.6L11,138.6z M13.5,138.7H11v1.9h2.5V138.7z"/>
	<path class="st5" d="M11,138.6h2.5v-1.9H11V138.6z M13.6,138.7H11h-0.1v-0.1v-2v-0.1H11h2.6h0.1v0.1L13.6,138.7L13.6,138.7
		L13.6,138.7z"/>
	<path class="st5" d="M8.5,134H11H11v0.1v0.1h-0.1h-0.8H8.5c-0.4,0-0.7,0.1-0.9,0.4l0,0c-0.2,0.2-0.4,0.6-0.4,0.9v5.6
		c0,0.1,0,0.1,0.1,0.2l0,0c0,0,0.1,0.1,0.2,0.1h3.5v-4.8H11v4.9v0.1H11H7.4c-0.1,0-0.2,0-0.3-0.1l0,0c-0.1-0.1-0.1-0.2-0.1-0.3v-5.6
		c0-0.4,0.2-0.8,0.4-1l0,0l0,0C7.7,134.2,8.1,134,8.5,134L8.5,134z"/>
	<path class="st5" d="M8.5,134H11H11v0.1v0.1h-0.1h-0.8H8.5c-0.4,0-0.7,0.1-0.9,0.4l0,0c-0.2,0.2-0.4,0.6-0.4,0.9v5.3H7v-5.3
		c0-0.4,0.2-0.8,0.4-1l0,0l0,0C7.7,134.2,8.1,134,8.5,134L8.5,134z M11,136.5v5.2c0,0.4-0.2,0.8-0.4,1.1l0,0l0,0
		c-0.3,0.3-0.7,0.4-1.1,0.4H7.1H7v-0.1v-0.1h0.1h0.6h1.8c0.4,0,0.7-0.2,1-0.4l0,0c0.2-0.2,0.4-0.6,0.4-1v-5.2H11z"/>
	<path class="st6" d="M17.2,139.6c0,0.5,0.4,0.9,0.8,0.9c0.5,0,0.8-0.4,0.8-0.9c0-0.5-0.4-0.9-0.8-0.9c-0.1,0-0.3,0-0.4,0.1l1.1-1.7
		h-0.1l-1.3,1.9C17.3,139.2,17.2,139.4,17.2,139.6L17.2,139.6z M17.3,139.6c0-0.4,0.3-0.8,0.7-0.8c0.4,0,0.8,0.3,0.8,0.8
		c0,0.4-0.3,0.8-0.8,0.8C17.6,140.4,17.3,140,17.3,139.6L17.3,139.6z M19.4,137.2h2.2l-2.1,3.3h0.1l2.2-3.3L19.4,137.2L19.4,137.2z
		 M22.1,139.6c0,0.5,0.4,0.9,0.8,0.9c0.4,0,0.8-0.4,0.8-0.9c0-0.4-0.2-0.7-0.6-0.8c0.3-0.1,0.5-0.4,0.5-0.8c0-0.5-0.3-0.8-0.8-0.8
		c-0.4,0-0.8,0.4-0.8,0.8c0,0.4,0.2,0.7,0.5,0.8C22.3,138.9,22.1,139.2,22.1,139.6L22.1,139.6z M22.1,139.6c0-0.4,0.3-0.8,0.7-0.8h0
		h0c0.4,0,0.7,0.4,0.7,0.8c0,0.4-0.3,0.8-0.7,0.8C22.5,140.4,22.1,140,22.1,139.6L22.1,139.6z M22.2,138c0-0.4,0.3-0.8,0.7-0.8
		c0.4,0,0.7,0.3,0.7,0.8c0,0.4-0.3,0.7-0.7,0.7h0C22.5,138.7,22.2,138.4,22.2,138L22.2,138z M26.1,138c0-0.5-0.4-0.9-0.8-0.9
		c-0.4,0-0.8,0.4-0.8,0.9c0,0.5,0.4,0.9,0.8,0.9c0.1,0,0.3,0,0.4-0.1l-1.1,1.7h0.1l1.3-1.9C26.1,138.4,26.1,138.2,26.1,138L26.1,138
		z M26.1,138c0,0.4-0.3,0.8-0.7,0.8c-0.4,0-0.7-0.3-0.7-0.8c0-0.4,0.3-0.8,0.7-0.8C25.7,137.2,26.1,137.6,26.1,138L26.1,138z
		 M29.2,137.2h1.1l-1.1,1.7l0.1,0.1c0.1-0.1,0.3-0.2,0.5-0.2c0.4,0,0.7,0.3,0.7,0.8c0,0.4-0.3,0.8-0.7,0.8c-0.2,0-0.4-0.1-0.5-0.2
		l-0.1,0.1c0.1,0.1,0.3,0.2,0.5,0.2c0.5,0,0.8-0.4,0.8-0.9c0-0.5-0.4-0.9-0.8-0.9c-0.1,0-0.2,0-0.4,0.1l1-1.6l0.1-0.1L29.2,137.2
		L29.2,137.2z M32.9,140.5L32.9,140.5l0.1-0.7h0.6v-0.1H33v-2.5h-0.1l-1.7,2.6h1.8V140.5z M31.3,139.7l1.6-2.4v2.4H31.3z
		 M34.2,138.8h0.5c0.4,0,0.7,0.3,0.7,0.8c0,0.4-0.3,0.8-0.7,0.8c-0.4,0-0.7-0.4-0.7-0.8h-0.1c0,0.5,0.4,0.9,0.8,0.9
		c0.5,0,0.8-0.4,0.8-0.9c0-0.5-0.4-0.9-0.8-0.9L34.2,138.8l0.1-1.6h1.2v-0.1h-1.3V138.8z M36.3,139.6c0,0.5,0.4,0.9,0.8,0.9
		c0.4,0,0.8-0.4,0.8-0.9c0-0.5-0.4-0.9-0.8-0.9c-0.1,0-0.3,0-0.4,0.1l1.1-1.7h-0.1l-1.3,1.9C36.4,139.2,36.3,139.4,36.3,139.6
		L36.3,139.6z M36.4,139.6c0-0.4,0.3-0.8,0.7-0.8c0.4,0,0.7,0.3,0.7,0.8c0,0.4-0.3,0.8-0.7,0.8C36.7,140.4,36.4,140,36.4,139.6
		L36.4,139.6z M41.4,140.5L41.4,140.5l0.1-3.3h-0.1V140.5z M42.8,138c0-0.4,0.3-0.8,0.7-0.8c0.4,0,0.7,0.4,0.7,0.8
		c0,0.2-0.1,0.3-0.2,0.5l-1.3,2h1.5v-0.1H43l1.2-1.9c0.1-0.2,0.2-0.3,0.2-0.5c0-0.5-0.4-0.9-0.8-0.9C43.1,137.1,42.8,137.5,42.8,138
		L42.8,138z M45.3,137.2h1.1l-1.1,1.7l0.1,0.1c0.1-0.1,0.3-0.2,0.5-0.2c0.4,0,0.7,0.3,0.7,0.8c0,0.4-0.3,0.8-0.7,0.8
		c-0.2,0-0.4-0.1-0.5-0.2l-0.1,0.1c0.1,0.1,0.3,0.2,0.6,0.2c0.5,0,0.8-0.4,0.8-0.9c0-0.5-0.4-0.9-0.8-0.9c-0.1,0-0.2,0-0.4,0.1
		l1-1.6l0.1-0.1L45.3,137.2L45.3,137.2z M49,140.5L49,140.5l0.1-0.7h0.6v-0.1h-0.6v-2.5H49l-1.7,2.6H49V140.5z M47.4,139.7l1.6-2.4
		v2.4H47.4z"/>
	<path class="st7" d="M11.8,128c1.9,0,3.5-1.6,3.5-3.5c0-1.9-1.6-3.5-3.5-3.5c-1.9,0-3.5,1.6-3.5,3.5C8.3,126.5,9.9,128,11.8,128
		L11.8,128z"/>
	<path class="st8" d="M8.3,128c1.9,0,3.5-1.6,3.5-3.5c0-1.9-1.6-3.5-3.5-3.5c-1.9,0-3.5,1.6-3.5,3.5C4.8,126.5,6.4,128,8.3,128
		L8.3,128z"/>
	<path class="st6" d="M21.7,126c-0.3,0.4-0.8,0.6-1.4,0.6c-1.1,0-1.9-0.9-1.9-1.9c0-1.1,0.9-1.9,1.9-1.9c0.5,0,1,0.2,1.4,0.6
		l0.1-0.1c-0.4-0.4-0.9-0.6-1.4-0.6c-1.1,0-2.1,0.9-2.1,2c0,1.1,0.9,2,2.1,2C20.9,126.7,21.4,126.4,21.7,126L21.7,126z M22.4,126.7
		l0.6-1.3h2.5l0.6,1.3h0.1l-1.9-4.1h-0.1l-1.9,4.1H22.4z M24.3,122.7l1.2,2.5h-2.4L24.3,122.7z M29.1,126.7h0.1l-1-1.7
		c0.7,0,1.2-0.6,1.2-1.2c0-0.7-0.6-1.2-1.2-1.2h-1.4v4.1H27V125h1.2L29.1,126.7z M29.4,123.8c0,0.6-0.5,1.1-1.1,1.1H27v-2.2h1.3
		C28.9,122.7,29.4,123.2,29.4,123.8L29.4,123.8z M30.4,126.7h1.5c1.1,0,2-0.9,2-2c0-1.1-0.9-2-2-2h-1.5V126.7z M33.8,124.6
		c0,1.1-0.9,1.9-1.9,1.9h-1.4v-3.9h1.4C32.9,122.7,33.8,123.5,33.8,124.6L33.8,124.6z"/>
	<path class="st6" d="M47.8,124.7c-0.5,0-0.9-0.4-0.9-0.9c0-0.5,0.4-0.9,0.9-0.9c0.5,0,0.9,0.4,0.9,0.9h0.1c0-0.5-0.4-1-1-1v-0.3
		h-0.1v0.3c-0.6,0-1,0.5-1,1c0,0.6,0.5,1,1,1V124.7z M46.9,125.7c0,0.5,0.4,1,0.9,1c0.5,0,0.9-0.4,0.9-1c0-0.5-0.4-0.9-0.9-0.9v-0.1
		c0.6,0,1.1,0.5,1.1,1c0,0.6-0.4,1-1,1.1v0h-0.1v0c-0.6,0-1-0.5-1-1.1H46.9z M47.8,127.1h0.1v-0.3h-0.1h0V127.1z"/>
</g>
<g>
	<g>
		<g>
			<path class="st9" d="M126.2,137.7c0,6.3-5.1,11.3-11.3,11.3h-64c-6.3,0-11.3-5.1-11.3-11.3V11.3C39.5,5.1,44.6,0,50.9,0h64
				c6.3,0,11.3,5.1,11.3,11.3V137.7z"/>
			<circle class="st10" cx="82.9" cy="135.8" r="7.9"/>
		</g>
		<rect x="48.4" y="8.8" class="st11" width="68.9" height="114.6"/>
		<polygon class="st12" points="117.3,123.4 48.4,123.4 48.4,123.4 117.3,8.8 		"/>
	</g>
</g>
<circle class="st13" cx="82.9" cy="69.3" r="64.9"/>
<circle class="st13" cx="82.9" cy="69.3" r="43.1"/>
<g>
	<path class="st14" d="M149.1,22c-14.7,1.2-23.1-7.3-23.1-7.3s-8.4,8.5-23.1,7.3c0,0-4.6,39.2,23.1,48C153.7,61.2,149.1,22,149.1,22
		z"/>
	<path class="st15" d="M145.3,26.6c-10.5,0-19.3-6.1-19.3-6.1s-8.7,6.1-19.3,6.1c0,0-1.4,31.6,19.3,38.8
		C146.7,58.1,145.3,26.6,145.3,26.6z"/>
	<path class="st16" d="M144.3,27.4c-10,0-18.3-5.8-18.3-5.8s-8.3,5.8-18.3,5.8c0,0-1.3,29.9,18.3,36.8
		C145.6,57.3,144.3,27.4,144.3,27.4z"/>
	<g class="st17">
		<path class="st15" d="M108.4,42.3c2.1,9,6.9,19.3,17.6,23v-23H108.4z"/>
		<path class="st15" d="M145.3,26.6c-10.5,0-19.3-6.1-19.3-6.1v21.9h17.6C145.6,33.9,145.3,26.6,145.3,26.6z"/>
	</g>
	<g>
		<path class="st14" d="M133.4,50.4c0,0.6-0.5,1.1-1.1,1.1h-12.6c-0.6,0-1.1-0.5-1.1-1.1V38.1c0-0.6,0.5-1.1,1.1-1.1h12.6
			c0.6,0,1.1,0.5,1.1,1.1V50.4z"/>
		<g>
			<path class="st14" d="M130.8,40.1h-9.5v-5.8c0-2.7,2.1-4.8,4.7-4.8c2.6,0,4.7,2.2,4.7,4.8V40.1z M123.3,38h5.3v-3.7
				c0-1.5-1.2-2.7-2.7-2.7c-1.5,0-2.7,1.2-2.7,2.7V38z"/>
		</g>
		<g>
			<ellipse class="st16" cx="126" cy="42.8" rx="2" ry="2.1"/>
			<polygon class="st16" points="126.8,43.4 126,43.4 125.2,43.4 124.3,48.1 126,48.1 127.8,48.1 			"/>
		</g>
	</g>
</g>
<path class="st18" d="M93.9,79.1h-21c-4.8,0-8.7-3.9-8.7-8.7v-21c0-4.8,3.9-8.7,8.7-8.7h21c4.8,0,8.7,3.9,8.7,8.7v21
	C102.6,75.2,98.7,79.1,93.9,79.1z"/>
<g>
	<polygon class="st14" points="72.6,122.7 91.5,123.7 91,132.6 72.2,131.5 	"/>
	<polygon class="st19" points="71.1,124.4 92.4,126.2 92.2,149.3 70.9,149.3 	"/>
	<path class="st20" d="M74.5,115.5c0,0-2.3-2.9-2.4-6.4c-0.2-3.5,0.4-9.4,0.6-13.7c0.2-4.3,1.4-5.1,2.9-5.3c1.5-0.1,2.3,0.4,2.3,1.2
		c-0.1,0.8-0.4,3.4-0.5,3.9c-0.1,0.7,0.3,0.7,0.4,0.5c0.1-0.5,0.5-2.3,0.7-4.1c0.2-1.8,1.5-2.6,2.7-2.7c1.2-0.1,2.4,0.6,2.4,1.4
		c0,0.7-0.2,4.6-0.2,5.2c0,0.6,0.2,0.4,0.4,0.4c0.1-0.1,0.4-3.1,0.5-4.9c0.1-1.9,1.2-2.9,2.4-3.2c1.2-0.3,2.4,0.2,2.4,0.9
		c0,0.7-0.2,5.9-0.2,6.4c0,0.5,0.4,0.5,0.5-0.2c0.1-0.7,1.2-21,1.3-22.3c0.1-1.3,1.4-2.5,3.3-2.5c1.9,0,2.4,2.3,2.3,3.4
		c-0.1,1.1-1.6,25.3-2.3,30.5c0,0.3,0.4,0.2,0.4,0c0-0.2,0.6-4.7,1-7.5c0.4-2.9,1.8-3.5,2.4-3.6c0.7-0.2,1.4-0.2,1.9-0.1
		c-0.2,0.6-0.7,2.1-0.8,3c0,0.6,0.1,1.4,0.5,1.8c-0.7,2.7-1.7,6.2-2.8,9.5c-2,6.4-6.1,10.7-6.1,10.7l-0.3,5.9l-16.3-0.8L74.5,115.5z
		"/>
	<path class="st21" d="M99,95.7c0.1-0.9,0.5-2.4,0.8-3c0.3,0.1,0.5,0.2,0.6,0.3c0.2,0.2-0.2,2-0.8,4.5C99.1,97.1,98.9,96.4,99,95.7z
		"/>
	<path class="st21" d="M91.3,72.5c0.1-0.6,0.4-1.2,1-1.6c0.4-0.3,1-0.4,1.6-0.4c0.4,0,0.8,0.2,1.1,0.5c0.6,0.6,0.7,1.7,0.7,2.3
		c0,0.1,0,0.4,0,0.8c-0.6,0.4-1.5,1-2.5,0.9c-0.9-0.1-1.7-0.4-2-1C91.2,73.1,91.2,72.7,91.3,72.5z"/>
</g>
<g>
	<path class="st12" d="M77.4,62.8l-0.1-0.7h0c-0.3,0.5-0.9,0.9-1.8,0.9c-1.2,0-1.8-0.8-1.8-1.7c0-1.4,1.2-2.2,3.5-2.2V59
		c0-0.5-0.1-1.3-1.3-1.3c-0.5,0-1.1,0.2-1.5,0.4l-0.2-0.7c0.5-0.3,1.2-0.5,1.9-0.5c1.8,0,2.2,1.2,2.2,2.4v2.2c0,0.5,0,1,0.1,1.4
		H77.4z M77.2,59.9c-1.2,0-2.5,0.2-2.5,1.3c0,0.7,0.5,1,1,1c0.8,0,1.2-0.5,1.4-1c0-0.1,0.1-0.2,0.1-0.3V59.9z"/>
	<path class="st12" d="M79.9,58.9c0-0.7,0-1.3,0-1.9h0.9l0,1h0c0.4-0.7,1.1-1.1,2.1-1.1c1.4,0,2.5,1.2,2.5,3c0,2.1-1.3,3.1-2.6,3.1
		C82,63,81.4,62.6,81,62h0v3.2h-1V58.9z M81,60.5c0,0.2,0,0.3,0,0.4c0.2,0.7,0.8,1.2,1.6,1.2c1.1,0,1.8-0.9,1.8-2.2
		c0-1.2-0.6-2.2-1.7-2.2c-0.7,0-1.4,0.5-1.6,1.3c0,0.1-0.1,0.3-0.1,0.4V60.5z"/>
	<path class="st12" d="M86.8,58.9c0-0.7,0-1.3,0-1.9h0.9l0,1h0c0.4-0.7,1.1-1.1,2.1-1.1c1.4,0,2.5,1.2,2.5,3c0,2.1-1.3,3.1-2.6,3.1
		c-0.8,0-1.4-0.3-1.8-0.9h0v3.2h-1V58.9z M87.8,60.5c0,0.2,0,0.3,0,0.4c0.2,0.7,0.8,1.2,1.6,1.2c1.1,0,1.8-0.9,1.8-2.2
		c0-1.2-0.6-2.2-1.7-2.2c-0.7,0-1.4,0.5-1.6,1.3c0,0.1-0.1,0.3-0.1,0.4V60.5z"/>
</g>
</svg>
