<?xml version="1.0" encoding="utf-8"?>
<!-- Generator: Adobe Illustrator 19.2.1, SVG Export Plug-In . SVG Version: 6.00 Build 0)  -->
<svg version="1.1" id="Layer_1" xmlns="http://www.w3.org/2000/svg" xmlns:xlink="http://www.w3.org/1999/xlink" x="0px" y="0px"
	 viewBox="0 0 68.5 45.5" style="enable-background:new 0 0 68.5 45.5;" xml:space="preserve">
<style type="text/css">
	.st0{fill:#B29FF7;stroke:#343537;stroke-width:2;stroke-linecap:round;stroke-linejoin:round;stroke-miterlimit:10;}
	.st1{fill:#FFFFFF;stroke:#343537;stroke-width:2;stroke-linecap:round;stroke-linejoin:round;stroke-miterlimit:10;}
	.st2{fill:#FFAB7D;stroke:#343537;stroke-width:2;stroke-linecap:round;stroke-linejoin:round;}
</style>
<path class="st0" d="M60.4,42.9H9c-3.3,0-6-2.7-6-6V6.3c0-2.8,2.2-5,5-5h47.4c2.8,0,5,2.2,5,5V42.9z"/>
<path class="st1" d="M60.4,11.3H8c-2.8,0-5-2.2-5-5v0c0-2.8,2.2-5,5-5l47.4,0c2.8,0,5,2.2,5,5V11.3z"/>
<path class="st2" d="M66.2,31.7H53.6c-3.3,0-6-2.7-6-6v0c0-3.3,2.7-6,6-6h12.6V31.7z"/>
<line class="st1" x1="8.8" y1="6.3" x2="37.2" y2="6.3"/>
<line class="st1" x1="46" y1="6.3" x2="53" y2="6.3"/>
<circle class="st1" cx="53.7" cy="25.7" r="2.1"/>
</svg>
