<?xml version="1.0" encoding="utf-8"?>
<!-- Generator: Adobe Illustrator 19.2.1, SVG Export Plug-In . SVG Version: 6.00 Build 0)  -->
<svg version="1.1" id="Layer_1" xmlns="http://www.w3.org/2000/svg" xmlns:xlink="http://www.w3.org/1999/xlink" x="0px" y="0px"
	 viewBox="0 0 19 25" style="enable-background:new 0 0 19 25;" xml:space="preserve">
<style type="text/css">
	.st0{fill:#FFFFFF;}
</style>
<path class="st0" d="M18.6,0.4C18.4,0.1,18.1,0,17.8,0H7.5C7.2,0,6.9,0.1,6.7,0.4C6.4,0.6,6.3,0.9,6.3,1.3v1H2.5
	c-0.7,0-1.3,0.3-1.8,0.8C0.2,3.6,0,4.2,0,4.9v17.5c0,0.7,0.2,1.3,0.7,1.8C1.2,24.7,1.8,25,2.5,25h8.1c0.7,0,1.3-0.3,1.8-0.8
	c0.5-0.5,0.7-1.1,0.7-1.8V10.3h4.6c0.3,0,0.6-0.1,0.9-0.4C18.9,9.6,19,9.3,19,9V1.3C19,0.9,18.9,0.6,18.6,0.4z M7.6,23.5
	c-0.3,0.3-0.7,0.5-1.1,0.5c-0.4,0-0.8-0.2-1.1-0.5C5.2,23.2,5,22.8,5,22.4c0-0.4,0.1-0.8,0.5-1.1c0.3-0.3,0.7-0.5,1.1-0.5
	c0.4,0,0.8,0.2,1.1,0.5c0.3,0.3,0.5,0.7,0.5,1.1C8.1,22.8,7.9,23.2,7.6,23.5z M11.1,19.8H2V5.4h4.3v7.5l2.5-2.6h2.3V19.8z M16.5,7.7
	H8.8V6.4h7.6V7.7z M16.5,5.8H8.8V4.5h7.6V5.8z M16.5,3.9H8.8V2.6h7.6V3.9z"/>
</svg>
