<?xml version="1.0" encoding="utf-8"?>
<!-- Generator: Adobe Illustrator 19.2.1, SVG Export Plug-In . SVG Version: 6.00 Build 0)  -->
<svg version="1.1" id="Layer_1" xmlns="http://www.w3.org/2000/svg" xmlns:xlink="http://www.w3.org/1999/xlink" x="0px" y="0px"
	 viewBox="0 0 28 12" style="enable-background:new 0 0 28 12;" xml:space="preserve">
<style type="text/css">
	.st0{fill:#FFFFFF;}
</style>
<g>
	<path class="st0" d="M2.6,4.8h7.9c0.5,0,1-0.4,1-1v0c0-0.6-0.4-1-1-1H2.6c-0.5,0-1,0.4-1,1v0C1.6,4.4,2,4.8,2.6,4.8z"/>
	<path class="st0" d="M27,0H5.2c-0.5,0-1,0.4-1,1v0.8h6.7c1.1,0,2,0.9,2,2c0,1.1-0.9,2-2,2H4.2v1h4.8c1.1,0,2,0.9,2,2
		c0,1.1-0.9,2-2,2H4.2V11c0,0.6,0.4,1,1,1H27c0.5,0,1-0.4,1-1V1C28,0.4,27.6,0,27,0z M18,8.5c-0.3,0.4-0.7,0.6-1.2,0.7v1h-1.2V9.3
		c-0.4,0-0.7-0.1-1-0.3c-0.3-0.1-0.6-0.3-0.9-0.6l1-1.2c0.2,0.2,0.3,0.3,0.6,0.4c0.2,0.1,0.4,0.1,0.6,0.1c0.2,0,0.4,0,0.5-0.1
		c0.1-0.1,0.2-0.2,0.2-0.3c0-0.2-0.1-0.3-0.4-0.4c-0.1-0.1-0.3-0.1-0.5-0.2c-0.2-0.1-0.3-0.1-0.5-0.2c-0.2-0.1-0.3-0.2-0.5-0.3
		c-0.2-0.1-0.3-0.2-0.4-0.4c-0.1-0.1-0.2-0.3-0.3-0.5C14,5.1,14,4.8,14,4.6c0-0.5,0.2-1,0.5-1.3c0.3-0.3,0.7-0.5,1.1-0.6V1.8h1.2
		v0.8c0.3,0,0.6,0.2,0.9,0.3c0.3,0.2,0.5,0.4,0.7,0.6l-1.1,1c-0.3-0.3-0.6-0.5-1-0.5c-0.2,0-0.3,0-0.4,0.1c-0.1,0.1-0.2,0.2-0.2,0.4
		c0,0.1,0,0.1,0.1,0.2c0.1,0.1,0.2,0.1,0.3,0.2C16.2,5,16.4,5,16.5,5.1c0.2,0.1,0.4,0.1,0.6,0.2c0.4,0.2,0.8,0.4,1,0.7
		c0.3,0.3,0.4,0.7,0.4,1.2C18.5,7.7,18.3,8.1,18,8.5z"/>
	<path class="st0" d="M9.9,8.8c0-0.6-0.4-1-1-1H1c-0.5,0-1,0.4-1,1s0.4,1,1,1h7.9C9.5,9.8,9.9,9.4,9.9,8.8z"/>
</g>
</svg>
