<?xml version="1.0" encoding="utf-8"?>
<!-- Generator: Adobe Illustrator 19.2.1, SVG Export Plug-In . SVG Version: 6.00 Build 0)  -->
<svg version="1.1" id="Layer_1" xmlns="http://www.w3.org/2000/svg" xmlns:xlink="http://www.w3.org/1999/xlink" x="0px" y="0px"
	 viewBox="0 0 69.8 48.2" style="enable-background:new 0 0 69.8 48.2;" xml:space="preserve">
<style type="text/css">
	.st0{fill:#B29FF7;}
	.st1{fill:none;stroke:#343537;stroke-width:2;stroke-linecap:round;stroke-linejoin:round;stroke-miterlimit:10;}
	.st2{fill:#FFFFFF;}
	.st3{fill:none;stroke:#343537;stroke-width:2;stroke-linecap:round;stroke-linejoin:round;}
</style>
<g id="Layer_2">
	<g>
		<polygon class="st0" points="60.9,11.9 56.9,30.1 26.6,30.1 23.9,11.9 		"/>
	</g>
	<polyline class="st1" points="2,3.4 18.5,3.4 23.5,33.4 59.7,33.4 65.3,8.5 31.6,8.5 	"/>
	<circle class="st1" cx="32" cy="41.1" r="3.5"/>
	<circle class="st1" cx="52.7" cy="41.1" r="3.5"/>
	<g>
		<path class="st2" d="M46.7,23.8c0,0.9-0.3,1.7-1,2.5c-0.7,0.7-1.6,1.1-2.8,1.2V29h-1v-1.5c-1.1-0.1-2-0.4-2.7-1S38,25.2,38,24.2
			h1.8c0,0.5,0.2,0.9,0.5,1.3s0.8,0.6,1.4,0.6v-4.5c-1.3-0.3-2.1-0.6-2.6-1c-0.6-0.4-0.9-0.9-1-1.4C38,18.9,38,18.5,38,18.1
			c0-1,0.3-1.8,1-2.5s1.6-1,2.8-1.1V13h1v1.5c1,0.1,1.9,0.4,2.5,1s1,1.3,1.1,2.3h-1.9c0-0.4-0.2-0.8-0.5-1.1
			c-0.3-0.3-0.7-0.6-1.3-0.7v4.5c1.5,0.3,2.6,0.7,3,1.3C46.4,22.2,46.7,22.9,46.7,23.8z M40.3,16.5c-0.4,0.4-0.6,0.8-0.6,1.5
			c0,0.6,0.2,1.1,0.5,1.4c0.4,0.3,0.9,0.6,1.6,0.8V16C41.2,15.9,40.7,16.1,40.3,16.5z M44.5,25.4c0.4-0.4,0.6-0.9,0.6-1.5
			s-0.2-1-0.6-1.3c-0.4-0.3-0.9-0.5-1.6-0.7v4.3C43.5,26,44.1,25.8,44.5,25.4z"/>
	</g>
	<line class="st3" x1="17" y1="18" x2="6.5" y2="18"/>
	<line class="st3" x1="14" y1="25" x2="3.5" y2="25"/>
</g>
</svg>
