<?xml version="1.0" encoding="utf-8"?>
<!-- Generator: Adobe Illustrator 19.2.1, SVG Export Plug-In . SVG Version: 6.00 Build 0)  -->
<svg version="1.1" id="Layer_1" xmlns="http://www.w3.org/2000/svg" xmlns:xlink="http://www.w3.org/1999/xlink" x="0px" y="0px"
	 viewBox="0 0 69.3 67.4" style="enable-background:new 0 0 69.3 67.4;" xml:space="preserve">
<style type="text/css">
	.st0{fill:#B29FF7;stroke:#343537;stroke-width:2;stroke-linecap:round;stroke-linejoin:round;stroke-miterlimit:10;}
	.st1{fill:#FFFFFF;}
	.st2{fill:none;stroke:#343537;stroke-width:2;stroke-linecap:round;stroke-linejoin:round;}
	.st3{fill:#FFAB7D;stroke:#343537;stroke-width:2;stroke-linecap:round;stroke-linejoin:round;}
</style>
<g id="bubble-smiley">
	<path class="st0" d="M35.3,1.4C17.7,1.4,3.4,15.7,3.4,33.3c0,5.7,1.5,11,4.1,15.6L3.4,61.7l12.3-3.4c5.4,4.2,12.2,6.8,19.6,6.8
		c17.6,0,31.8-14.2,31.8-31.8C67.1,15.7,52.8,1.4,35.3,1.4z"/>
	<g>
		<path class="st1" d="M35.3,8C21.3,8,10,19.3,10,33.3c0,13.9,11.3,25.2,25.2,25.2c13.9,0,25.2-11.3,25.2-25.2
			C60.5,19.3,49.2,8,35.3,8z"/>
		<path class="st2" d="M40.8,26.7c1-2.4,3.4-3.7,5.6-3.6c2.2,0,4.6,1.2,5.6,3.6"/>
		<path class="st2" d="M18.6,26.6c1.1-2.1,3.3-3.1,5.3-3.1c2.1,0,4.2,1,5.3,3.1"/>
		<path class="st3" d="M35.3,52.3c-9.7,0-17.6-7.5-18.3-17h36.7C52.9,44.8,44.9,52.3,35.3,52.3z"/>
	</g>
</g>
</svg>
