<?xml version="1.0" encoding="utf-8"?>
<!-- Generator: Adobe Illustrator 19.2.1, SVG Export Plug-In . SVG Version: 6.00 Build 0)  -->
<svg version="1.1" id="Layer_1" xmlns="http://www.w3.org/2000/svg" xmlns:xlink="http://www.w3.org/1999/xlink" x="0px" y="0px"
	 viewBox="0 0 29 13" style="enable-background:new 0 0 29 13;" xml:space="preserve">
<style type="text/css">
	.st0{fill:#FFFFFF;}
</style>
<g>
	<path class="st0" d="M24.5,0H1.1C0.5,0,0,0.5,0,1.1v10.8C0,12.5,0.5,13,1.1,13h23.5c0.6,0,1.1-0.5,1.1-1.1V8.1h-2.1l0.1,0.1
		c0.4,0.4,0.4,1.1,0,1.5l-0.8,0.8c-0.2,0.2-0.5,0.3-0.8,0.3c-0.3,0-0.5-0.1-0.8-0.3l-3.2-3.3c-0.4-0.4-0.4-1.1,0-1.5l3.2-3.2
		c0.4-0.4,1.1-0.4,1.5,0l0.8,0.8c0.4,0.4,0.4,1.1,0,1.5l-0.1,0.1h2.1V1.1C25.6,0.5,25.1,0,24.5,0z M14.9,9.2
		c-0.3,0.4-0.8,0.6-1.3,0.8V11h-1.3v-1c-0.4-0.1-0.7-0.2-1.1-0.3c-0.3-0.2-0.6-0.4-0.9-0.6l1.1-1.3c0.2,0.2,0.4,0.3,0.6,0.4
		c0.2,0.1,0.5,0.2,0.7,0.2c0.2,0,0.4,0,0.5-0.1c0.2-0.1,0.2-0.2,0.2-0.4c0-0.2-0.2-0.3-0.5-0.5c-0.1-0.1-0.3-0.1-0.5-0.2
		c-0.2-0.1-0.4-0.1-0.6-0.2c-0.2-0.1-0.4-0.2-0.5-0.3c-0.2-0.1-0.3-0.2-0.4-0.4c-0.1-0.2-0.2-0.3-0.3-0.6c-0.1-0.2-0.1-0.5-0.1-0.7
		c0-0.6,0.2-1,0.5-1.4c0.3-0.3,0.7-0.6,1.2-0.7V2h1.3v0.9c0.4,0.1,0.7,0.2,1,0.3c0.3,0.2,0.6,0.4,0.8,0.7L14.1,5
		c-0.3-0.4-0.7-0.6-1.1-0.6c-0.2,0-0.4,0-0.5,0.1c-0.1,0.1-0.2,0.2-0.2,0.4c0,0.1,0,0.1,0.1,0.2c0.1,0.1,0.2,0.1,0.3,0.2
		c0.1,0.1,0.3,0.1,0.5,0.2c0.2,0.1,0.4,0.1,0.6,0.2c0.4,0.2,0.8,0.4,1.1,0.7c0.3,0.3,0.4,0.7,0.4,1.3C15.4,8.3,15.2,8.8,14.9,9.2z"
		/>
	<polygon class="st0" points="22.1,3.3 20.6,4.8 20.6,4.8 19.8,5.5 19.8,5.5 19.2,6.2 19.2,6.2 18.9,6.5 19.6,7.3 19.6,7.3 
		19.8,7.5 19.8,7.5 20.6,8.2 20.6,8.2 22.1,9.8 22.8,9 21.3,7.5 21.3,7.5 20.6,6.7 20.6,6.7 20.4,6.5 21.1,5.7 21.3,5.5 21.3,5.5 
		22.8,4 	"/>
	<rect x="27.9" y="3.8" class="st0" width="1.1" height="1.1"/>
	<rect x="27.9" y="6" class="st0" width="1.1" height="1.1"/>
	<rect x="25.8" y="5.9" class="st0" width="1.1" height="1.1"/>
	<rect x="23.7" y="5.9" class="st0" width="1.1" height="1.1"/>
	<rect x="21.5" y="5.9" class="st0" width="1.1" height="1.1"/>
</g>
</svg>
