<?xml version="1.0" encoding="utf-8"?>
<!-- Generator: Adobe Illustrator 19.2.1, SVG Export Plug-In . SVG Version: 6.00 Build 0)  -->
<svg version="1.1" id="Layer_1" xmlns="http://www.w3.org/2000/svg" xmlns:xlink="http://www.w3.org/1999/xlink" x="0px" y="0px"
	 viewBox="0 0 31 13" style="enable-background:new 0 0 31 13;" xml:space="preserve">
<style type="text/css">
	.st0{fill:#FFFFFF;}
</style>
<g>
	<path class="st0" d="M19.9,7V3.8c0-0.6,0.5-1.1,1.1-1.1h1.1c0.6,0,1.1,0.5,1.1,1.1v1.1h2.2V1.1c0-0.6-0.5-1.1-1.1-1.1H1.1
		C0.5,0,0,0.5,0,1.1v10.8C0,12.5,0.5,13,1.1,13h23.2c0.6,0,1.1-0.5,1.1-1.1V8.1H21C20.4,8.1,19.9,7.6,19.9,7z M14.7,9.2
		c-0.3,0.4-0.8,0.6-1.3,0.8V11h-1.3v-1C11.7,10,11.3,9.9,11,9.7c-0.3-0.2-0.6-0.4-0.9-0.6l1.1-1.3c0.2,0.2,0.4,0.3,0.6,0.4
		c0.2,0.1,0.5,0.2,0.7,0.2c0.2,0,0.4,0,0.5-0.1c0.2-0.1,0.2-0.2,0.2-0.4c0-0.2-0.2-0.3-0.5-0.5c-0.1-0.1-0.3-0.1-0.5-0.2
		c-0.2-0.1-0.4-0.1-0.6-0.2c-0.2-0.1-0.4-0.2-0.5-0.3c-0.2-0.1-0.3-0.2-0.4-0.4c-0.1-0.2-0.2-0.3-0.3-0.6c-0.1-0.2-0.1-0.5-0.1-0.7
		c0-0.6,0.2-1,0.5-1.4c0.3-0.3,0.7-0.6,1.2-0.7V2h1.3v0.9c0.4,0.1,0.7,0.2,1,0.3c0.3,0.2,0.6,0.4,0.8,0.7L13.9,5
		c-0.3-0.4-0.6-0.6-1-0.6c-0.2,0-0.3,0-0.5,0.1c-0.1,0.1-0.2,0.2-0.2,0.4c0,0.1,0,0.1,0.1,0.2c0.1,0.1,0.2,0.1,0.3,0.2
		c0.1,0.1,0.3,0.1,0.5,0.2c0.2,0.1,0.4,0.1,0.6,0.2c0.4,0.2,0.8,0.4,1.1,0.7c0.3,0.3,0.4,0.7,0.4,1.3C15.2,8.3,15,8.8,14.7,9.2z"/>
	<polygon class="st0" points="27.8,3.3 27.1,4 29,6 22.1,6 22.1,3.8 21,3.8 21,7 29,7 27.1,9 27.8,9.8 31,6.5 	"/>
</g>
</svg>
