<?xml version="1.0" encoding="utf-8"?>
<!-- Generator: Adobe Illustrator 19.2.1, SVG Export Plug-In . SVG Version: 6.00 Build 0)  -->
<svg version="1.1" id="Layer_1" xmlns="http://www.w3.org/2000/svg" xmlns:xlink="http://www.w3.org/1999/xlink" x="0px" y="0px"
	 viewBox="0 0 29 22" style="enable-background:new 0 0 29 22;" xml:space="preserve">
<style type="text/css">
	.st0{fill:#FFFFFF;}
</style>
<path class="st0" d="M28.6,0.4C28.3,0.1,28,0,27.6,0H15.9c-0.4,0-0.7,0.1-1,0.4c-0.3,0.3-0.4,0.6-0.4,1v6.9H2.3
	c-0.6,0-1.1,0.2-1.6,0.7C0.2,9.5,0,10,0,10.7v9c0,0.6,0.2,1.1,0.7,1.6c0.5,0.5,1,0.7,1.6,0.7h20.6c0.6,0,1.1-0.2,1.6-0.7
	c0.5-0.5,0.7-1,0.7-1.6v-8.2h2.3c0.4,0,0.7-0.1,1-0.4c0.3-0.3,0.4-0.6,0.4-1V1.4C29,1,28.9,0.7,28.6,0.4z M11.5,16.3H8.1v3.4H5.7
	v-3.4H2.3v-2.2h3.4v-3.4h2.3v3.4h3.4V16.3z M17.9,18.1c-0.3,0.3-0.7,0.5-1.2,0.5c-0.5,0-0.9-0.2-1.2-0.5c-0.3-0.3-0.5-0.7-0.5-1.2
	c0-0.5,0.2-0.9,0.5-1.2c0.3-0.3,0.7-0.5,1.2-0.5c0.5,0,0.9,0.2,1.2,0.5c0.3,0.3,0.5,0.7,0.5,1.2C18.4,17.4,18.2,17.8,17.9,18.1z
	 M22.4,14.7c-0.3,0.3-0.7,0.5-1.2,0.5c-0.5,0-0.9-0.2-1.2-0.5c-0.3-0.3-0.5-0.7-0.5-1.2c0-0.5,0.2-0.9,0.5-1.2
	c0.3-0.3,0.7-0.5,1.2-0.5c0.5,0,0.9,0.2,1.2,0.5c0.3,0.3,0.5,0.7,0.5,1.2C22.9,14,22.8,14.4,22.4,14.7z M26.1,8.6h-8.8V7.2h8.8V8.6z
	 M26.1,6.5h-8.8V5h8.8V6.5z M26.1,4.3h-8.8V2.9h8.8V4.3z"/>
</svg>
