<?xml version="1.0" encoding="utf-8"?>
<!-- Generator: Adobe Illustrator 19.2.1, SVG Export Plug-In . SVG Version: 6.00 Build 0)  -->
<svg version="1.1" id="Layer_2" xmlns="http://www.w3.org/2000/svg" xmlns:xlink="http://www.w3.org/1999/xlink" x="0px" y="0px"
	 viewBox="0 0 60.5 59" style="enable-background:new 0 0 60.5 59;" xml:space="preserve">
<style type="text/css">
	.st0{fill:none;stroke:#5D5D82;stroke-width:2;stroke-linecap:round;stroke-linejoin:round;stroke-miterlimit:10;}
	.st1{fill:#FFAC3E;}
	.st2{fill:#5D5D82;}
	.st3{fill:#FFCCB6;stroke:#5D5D82;stroke-linecap:round;stroke-linejoin:round;stroke-miterlimit:10;}
	.st4{fill:#FFCCB6;stroke:#5D5D82;stroke-width:1.5;stroke-linecap:round;stroke-linejoin:round;stroke-miterlimit:10;}
</style>
<path class="st0" d="M15.5,23.3v-1.9c0-1.7,1.3-3,3-3h34.9c1.7,0,3,1.3,3,3v16.2c0,1.7-1.3,3-3,3H18.5c-1.7,0-3-1.3-3-3v-1.3"/>
<circle class="st1" cx="35.9" cy="29.2" r="7.9"/>
<g>
	<path class="st2" d="M33.2,32.6c-0.4,0-0.6-0.2-0.6-0.7c0-0.5,0.2-0.7,0.6-0.7h3.5c0.4,0,0.7-0.1,0.9-0.1c0.2-0.1,0.3-0.1,0.3-0.2
		c0.1-0.1,0.1-0.2,0.1-0.4c0-0.1,0-0.3-0.1-0.4c-0.1-0.2-0.3-0.3-0.7-0.3l-2.5,0c-0.5,0-1-0.2-1.4-0.5c-0.5-0.3-0.7-0.9-0.7-1.5
		c0-0.4,0.1-0.8,0.3-1.1c0.4-0.6,1.2-0.9,2.4-0.9V25h1.3v0.7l1.8,0h0.3c0.4,0,0.6,0.2,0.6,0.7s-0.2,0.7-0.6,0.7h-3.5
		c-0.4,0-0.7,0.1-0.9,0.1c-0.2,0.1-0.3,0.1-0.3,0.2c-0.1,0.1-0.1,0.2-0.1,0.4c0,0.1,0,0.3,0.1,0.4c0.1,0.2,0.3,0.3,0.7,0.3l2.5,0
		c0.5,0,1,0.2,1.4,0.5c0.5,0.3,0.7,0.9,0.7,1.5c0,0.4-0.1,0.8-0.3,1.1c-0.4,0.6-1.2,0.9-2.4,0.9l0,0.7h-1.3v-0.7l-1.8,0H33.2z"/>
</g>
<path class="st3" d="M53.9,23.9c-2.4-1.1-3.2-2.7-3.2-3.4"/>
<path class="st3" d="M53.9,34.6c-2.4,1.1-3.2,2.7-3.2,3.4"/>
<path class="st3" d="M19.4,23.9c2.4-1.1,3.2-2.7,3.2-3.4"/>
<path class="st3" d="M19.4,34.6c2.4,1.1,3.2,2.7,3.2,3.4"/>
<line class="st4" x1="7.8" y1="26.5" x2="20.5" y2="26.5"/>
<line class="st4" x1="5.4" y1="30.1" x2="18.7" y2="30.1"/>
<line class="st4" x1="9.7" y1="33.5" x2="17.2" y2="33.5"/>
<line class="st4" x1="6.3" y1="33.5" x2="3.1" y2="33.5"/>
</svg>
